<svg version="1.1" id="Layer_1" xmlns="http://www.w3.org/2000/svg" xmlns:xlink="http://www.w3.org/1999/xlink" x="0px" y="0px"
	 width="100%" viewBox="0 0 1280 1280" enable-background="new 0 0 1280 1280" xml:space="preserve">
<path fill="#00A793" opacity="1.000000" stroke="none" 
	d="
M843.000000,1281.000000 
	C562.000000,1281.000000 281.500000,1281.000000 1.000000,1281.000000 
	C1.000000,854.333313 1.000000,427.666656 1.000000,1.000000 
	C427.666656,1.000000 854.333313,1.000000 1281.000000,1.000000 
	C1281.000000,427.666656 1281.000000,854.333313 1281.000000,1281.000000 
	C1135.166626,1281.000000 989.333313,1281.000000 843.000000,1281.000000 
M453.361053,616.991638 
	C453.203766,617.306702 453.046509,617.621765 452.963562,617.964111 
	C452.963562,617.964111 452.932556,617.891235 452.414154,618.033875 
	C452.236755,618.332275 452.059357,618.630615 451.955841,618.961853 
	C451.955841,618.961853 451.928741,618.885620 451.399078,619.012695 
	C451.218018,619.311768 451.036957,619.610840 450.933411,619.935181 
	C450.933411,619.935181 450.907684,619.857788 450.377838,619.990723 
	C450.196014,620.290649 450.014160,620.590576 449.911682,620.914551 
	C449.911682,620.914551 449.887665,620.835266 449.363953,620.981140 
	C449.188965,621.286133 449.013977,621.591187 448.918671,621.923401 
	C448.918671,621.923401 448.892090,621.843567 448.377228,622.008972 
	C448.219360,622.322266 448.061462,622.635559 447.443451,623.105652 
	C447.151245,623.296875 446.987396,623.566162 446.428894,624.045410 
	C446.239349,624.334351 446.049805,624.623230 445.938934,624.941101 
	C445.938934,624.941101 445.908905,624.862854 445.384521,625.010986 
	C445.222412,625.319702 445.060303,625.628418 444.977051,625.970093 
	C444.977051,625.970093 444.930908,625.898071 444.415924,626.042542 
	C444.253784,626.344421 444.091675,626.646301 443.995850,626.997498 
	C443.995850,626.997498 443.945526,626.931885 443.436249,627.063538 
	C443.291840,627.371765 443.147430,627.679993 442.996002,627.995117 
	C442.996002,627.995117 442.989105,628.002441 442.473999,628.114136 
	C442.310883,628.405151 442.147797,628.696106 441.457764,629.247742 
	C440.977692,629.856750 440.497589,630.465759 439.528625,631.173340 
	C439.209717,631.382812 439.091461,631.673828 439.050537,632.067078 
	C439.050537,632.067078 439.076080,632.189453 438.509552,632.351685 
	C438.207062,632.842224 437.904541,633.332764 437.227356,633.987610 
	C436.996002,634.165710 436.870789,634.400452 436.319244,634.895874 
	C436.135468,635.216064 435.951691,635.536255 435.847778,635.860596 
	C435.847778,635.860596 435.837494,635.781189 435.322601,635.962708 
	C435.181732,636.287170 435.040863,636.611694 434.980011,636.974854 
	C434.980011,636.974854 434.930145,636.901245 434.429382,637.057312 
	C434.277252,637.356689 434.125153,637.656128 433.409607,638.315247 
	C408.769104,668.403076 398.455780,703.177856 400.169342,741.664551 
	C401.283936,766.697998 413.716187,783.039673 435.473846,788.971191 
	C435.645691,788.942932 435.817505,788.914612 436.384247,789.084595 
	C436.384247,789.084595 436.825745,789.103699 437.388855,789.678467 
	C444.345245,789.929199 451.301666,790.179993 458.311523,790.464905 
	C458.311523,790.464905 458.369751,790.439697 459.194885,790.380859 
	C475.870728,788.493591 488.452148,780.510376 494.796326,764.721741 
	C498.053223,756.616333 500.131653,747.952148 501.954315,739.372986 
	C506.147491,719.635864 511.669647,700.504822 526.228638,685.615845 
	C537.241333,674.353516 548.672791,663.485657 560.200562,652.745544 
	C579.166321,635.075562 598.521729,617.822205 617.409546,600.070496 
	C633.175110,585.253174 645.928528,567.988281 654.894104,548.302551 
	C669.808411,515.554993 670.263184,481.633026 659.321411,447.916595 
	C643.136780,398.045166 607.770630,365.978546 560.439514,346.085175 
	C526.894165,331.986053 491.588562,327.202942 455.508209,328.938385 
	C439.526703,329.707092 423.656952,332.798950 407.328003,334.844177 
	C407.328003,334.844177 406.987213,335.069458 406.294373,334.919556 
	C405.642487,335.137238 404.990601,335.354919 403.720306,335.471527 
	C403.136383,335.690094 402.552460,335.908661 401.239288,336.032288 
	C399.835815,336.455139 398.432373,336.877960 396.465790,337.304626 
	C395.976257,337.569946 395.486725,337.835266 394.389374,337.998016 
	C393.853119,338.240662 393.316864,338.483337 392.905884,338.828430 
	C392.905884,338.828430 392.824982,338.688293 392.038361,338.655334 
	C388.948029,339.718292 385.857697,340.781250 382.014496,341.902100 
	C364.120178,348.025146 347.526276,356.729126 332.061493,367.539337 
	C288.626099,397.901581 260.913177,438.044891 254.313736,491.642181 
	C249.689957,529.194214 285.719116,560.554138 324.480133,549.227783 
	C343.163025,543.768433 352.924866,529.528198 359.682312,512.542969 
	C365.207245,498.655823 370.069244,484.471252 376.270294,470.895966 
	C382.994781,456.174835 391.623810,442.340576 404.569550,432.223541 
	C410.997620,427.200073 418.829865,423.973511 426.732025,420.025452 
	C428.048889,419.497253 429.365753,418.969086 431.287598,418.538300 
	C431.858521,418.360260 432.429443,418.182190 433.700012,418.047577 
	C434.509277,417.725830 435.318512,417.404053 436.759949,417.076111 
	C437.175079,417.024017 437.590210,416.971924 438.532196,417.037842 
	C438.684296,416.941589 438.836395,416.845367 439.692596,416.751129 
	C440.798126,416.477386 441.903656,416.203644 443.800293,416.019958 
	C445.859558,415.677032 447.918854,415.334106 450.668304,415.127380 
	C451.123993,415.036469 451.579681,414.945526 452.964478,414.941559 
	C458.124329,414.910706 463.286957,414.754913 468.443512,414.870361 
	C492.450226,415.407867 513.787231,422.814911 530.759705,440.325928 
	C549.579407,459.742676 556.934082,482.895111 550.806885,509.473206 
	C546.865662,526.568787 536.286011,540.009155 524.052002,552.013977 
	C513.964050,561.912964 503.250336,571.172913 492.853485,580.758972 
	C480.518127,592.132568 468.225159,603.552063 455.442993,615.090820 
	C455.143585,615.280518 454.978149,615.551819 454.431458,616.025024 
	C454.240753,616.302795 454.050018,616.580627 453.991516,616.907288 
	C453.991516,616.907288 453.877747,616.823975 453.361053,616.991638 
M404.421539,854.067932 
	C404.311188,854.389709 404.200806,854.711487 404.021698,855.042297 
	C404.021698,855.042297 404.056396,855.102356 403.541534,855.374023 
	C403.308502,855.887451 403.075470,856.400940 402.922974,856.930481 
	C402.922974,856.930481 402.889374,856.855530 402.397461,857.048096 
	C402.288269,857.368835 402.179077,857.689514 402.004242,858.020203 
	C402.004242,858.020203 402.029114,858.081726 401.509338,858.350342 
	C401.288574,858.873962 401.067810,859.397583 400.329926,860.374878 
	C388.147888,883.281738 390.361115,912.508484 406.052948,930.574585 
	C415.466248,941.412109 427.495728,947.953430 442.214478,950.718140 
	C443.129700,950.751587 444.044891,950.785034 445.602142,950.951477 
	C446.037201,950.989197 446.472229,951.026917 447.525879,951.641174 
	C449.854645,951.682007 452.183746,951.708618 454.512115,951.765808 
	C485.090271,952.517578 514.465637,929.744263 516.802307,896.377441 
	C519.838318,853.024414 480.966278,818.361450 434.080109,832.848328 
	C433.727203,832.968140 433.374298,833.088013 432.367859,833.148682 
	C431.244080,833.761536 430.120331,834.374451 428.997559,834.997559 
	C428.997559,834.997559 428.986481,834.992371 428.316406,834.997986 
	C427.185425,835.641663 426.054413,836.285400 424.983765,837.003479 
	C424.983765,837.003479 424.940216,836.919128 424.262390,836.946106 
	C422.809265,837.934509 421.356171,838.922913 419.976349,839.978027 
	C419.976349,839.978027 419.937042,839.887024 419.373474,839.979065 
	C419.135284,840.260498 418.897095,840.541931 418.139740,840.960266 
	C417.759918,841.315063 417.380127,841.669861 416.465698,842.079468 
	C416.268005,842.359253 416.070343,842.639038 415.957458,842.966614 
	C415.957458,842.966614 415.909241,842.882080 415.289001,843.007507 
	C414.419556,843.891968 413.550110,844.776489 412.881409,845.886169 
	C412.881409,845.886169 412.713104,845.635803 412.173157,845.792603 
	C411.824738,846.216675 411.476318,846.640747 411.057404,847.046204 
	C411.057404,847.046204 411.045593,847.118103 410.537323,847.169556 
	C410.381958,847.456726 410.226593,847.743896 410.011261,848.006470 
	C410.011261,848.006470 410.030640,848.068359 409.525787,848.153137 
	C409.373260,848.440735 409.220764,848.728333 408.585876,849.289917 
	C408.417999,849.613770 408.250153,849.937622 407.495392,850.395325 
	C406.933075,851.210632 406.370789,852.025879 405.901794,852.900208 
	C405.901794,852.900208 405.857697,852.799011 405.333801,852.966614 
	C405.184204,853.289185 405.034637,853.611755 404.963898,853.961853 
	C404.963898,853.961853 404.923187,853.888916 404.421539,854.067932 
M942.549133,320.258789 
	C942.549133,320.258789 942.551147,320.075378 942.742310,319.248566 
	C943.324890,313.225769 942.815247,306.822449 944.749268,301.270416 
	C947.563110,293.192657 952.414490,285.850647 955.897217,277.973877 
	C961.244080,265.881012 965.787720,253.323898 963.754578,239.902359 
	C962.766052,233.376770 960.820129,225.857300 956.622253,221.217148 
	C949.913025,213.801163 942.937683,206.261932 933.769226,201.154953 
	C923.454468,195.409424 913.382507,189.865051 901.026367,192.061615 
	C886.796814,194.591187 874.171936,200.019882 864.608887,211.501755 
	C856.889465,220.770218 853.224304,231.905853 851.375793,243.219299 
	C849.452332,254.991852 846.835571,267.045929 849.722595,279.189972 
	C849.973755,280.246429 849.328491,281.485229 849.401306,282.619995 
	C849.791748,288.708984 848.578186,295.633789 851.087769,300.700104 
	C856.177917,310.976227 856.732117,321.745697 857.826782,332.587067 
	C857.939270,333.701263 856.917969,335.574402 855.922729,336.051025 
	C849.651672,339.054047 843.212219,341.702423 836.879944,344.581329 
	C827.855225,348.684296 818.902222,352.945770 809.866638,357.024384 
	C802.750793,360.236450 795.736145,363.844269 788.330994,366.181549 
	C783.700500,367.643066 780.483154,369.729828 779.197632,374.198334 
	C777.875000,378.795959 777.182861,383.570862 776.023010,388.220337 
	C774.555237,394.104614 773.207581,400.049988 771.216980,405.763062 
	C769.598572,410.408142 767.075378,414.734283 765.013062,419.229187 
	C760.513000,429.037262 756.208740,438.938629 751.533997,448.662201 
	C745.528381,461.153992 739.130493,473.456879 733.098145,485.936218 
	C726.175476,500.257294 719.453247,514.675476 712.683777,529.070190 
	C711.702881,531.156006 710.336670,533.303467 710.182312,535.495178 
	C709.283752,548.253418 708.737000,561.035950 707.986755,573.805237 
	C707.324280,585.080383 706.624023,596.354248 705.810059,607.619324 
	C704.601746,624.341431 703.298462,641.056885 701.993591,657.771851 
	C701.502808,664.057678 701.126770,670.366089 700.276611,676.606689 
	C699.379517,683.191956 700.986877,685.229858 707.727539,684.975342 
	C712.454712,684.796875 714.625793,687.421021 713.036743,691.892029 
	C709.084595,703.011230 706.288513,714.334656 710.184509,725.904175 
	C712.155396,731.757019 714.666565,738.127686 718.875671,742.309204 
	C722.342041,745.752747 728.586792,746.615967 733.757874,748.057251 
	C737.752075,749.170532 741.352478,750.105835 742.968567,754.589050 
	C743.611389,756.372498 745.014282,758.520996 746.614929,759.177307 
	C749.324036,760.288147 752.886292,761.474426 755.320984,760.566589 
	C758.548279,759.363220 757.996704,755.546143 756.790344,752.655273 
	C755.986084,750.728027 754.595093,749.045593 753.483459,747.280151 
	C754.714905,745.301514 755.891479,743.411072 757.698730,740.507263 
	C758.327820,741.696289 758.595825,742.523193 759.116333,743.135437 
	C762.850037,747.527344 766.859680,746.867859 768.585693,741.364746 
	C769.465576,738.559326 769.855225,735.515869 769.945801,732.563965 
	C770.161377,725.535583 770.741577,724.715759 777.447388,727.162964 
	C792.419189,732.626770 808.210388,731.958130 823.648438,733.857422 
	C829.215576,734.542297 831.262512,736.064270 832.014954,741.546936 
	C832.871948,747.791748 833.779602,754.051331 835.134705,760.200989 
	C837.185974,769.510315 839.878662,778.679749 841.871033,788.000122 
	C844.680115,801.141113 847.542419,814.298218 849.558411,827.573486 
	C851.574890,840.852600 853.327637,854.256592 853.844666,867.658020 
	C854.570068,886.461304 854.168091,905.314270 853.948425,924.142456 
	C853.907227,927.678528 852.930054,931.390686 851.577393,934.690491 
	C846.916443,946.061035 841.860596,957.269043 837.026733,968.569580 
	C832.912903,978.186829 828.998230,987.890198 824.808716,997.473938 
	C821.163879,1005.811584 817.035950,1013.942261 813.527161,1022.333984 
	C809.703125,1031.479614 806.524902,1040.893921 802.745667,1050.059448 
	C796.446533,1065.336304 789.854797,1080.492188 783.457642,1095.728882 
	C777.546631,1109.807739 771.878723,1123.991577 765.718750,1137.959351 
	C764.732361,1140.195923 761.924744,1142.686279 759.620605,1143.080322 
	C753.458008,1144.134521 751.429932,1148.880737 749.100830,1153.297729 
	C745.636841,1159.867065 742.577393,1166.654175 739.466248,1173.404053 
	C737.035522,1178.677734 734.565552,1183.953369 732.551086,1189.390503 
	C731.512695,1192.193237 731.237061,1195.399292 735.120911,1196.855713 
	C744.553040,1200.392334 753.941406,1204.049316 763.415405,1207.469604 
	C770.571167,1210.052856 777.707092,1213.605591 785.088745,1214.337402 
	C790.286316,1214.852783 794.031494,1216.927124 798.170654,1219.104614 
	C803.584778,1221.953003 808.802063,1225.355591 814.495728,1227.459717 
	C834.463501,1234.839111 855.089355,1239.252441 876.484436,1237.793823 
	C882.606262,1237.376343 888.990906,1235.556519 894.453735,1232.794800 
	C897.506653,1231.251587 900.179688,1226.649414 900.734436,1223.070801 
	C901.392029,1218.829102 902.631836,1217.475098 906.536804,1218.057617 
	C908.016052,1218.278320 909.474976,1218.635132 910.954407,1218.854492 
	C914.604980,1219.395264 917.305359,1218.568604 918.998230,1214.717896 
	C919.596863,1213.356201 922.255859,1212.024048 923.871887,1212.137451 
	C930.983948,1212.636475 938.057678,1213.675781 945.146912,1214.505859 
	C964.449707,1216.766724 983.598328,1218.015991 1001.657349,1208.346069 
	C1007.695984,1205.112671 1011.133301,1198.516113 1009.220032,1192.248535 
	C1006.390381,1182.979126 1002.202881,1180.186401 993.704773,1181.567627 
	C985.783386,1182.855103 977.731384,1182.434448 970.970154,1178.120239 
	C962.450317,1172.683838 954.552795,1166.236450 946.641418,1159.907104 
	C944.684692,1158.341553 942.981201,1155.717896 942.412659,1153.287842 
	C940.032104,1143.114258 938.013489,1132.850830 936.080200,1122.579346 
	C934.145447,1112.300171 932.433044,1101.978516 930.693481,1091.663696 
	C929.451538,1084.299683 927.650940,1076.944214 927.342346,1069.533203 
	C927.047729,1062.459473 928.427185,1055.323608 928.953979,1048.206543 
	C930.045044,1033.468384 930.933411,1018.714478 932.132751,1003.985596 
	C933.991882,981.154602 936.036011,958.338745 938.013733,935.517456 
	C938.486267,930.064941 938.066101,924.314392 939.699280,919.228577 
	C943.185059,908.373840 947.722534,897.855225 951.874512,887.216614 
	C955.244812,878.580750 958.847290,870.031799 962.046204,861.333862 
	C965.881958,850.904175 969.094482,840.238892 973.122986,829.888123 
	C979.622925,813.186829 985.054688,796.179016 988.496094,778.603516 
	C990.537048,768.180420 991.736877,757.594910 993.497375,747.113098 
	C994.010376,744.059265 994.266174,740.068298 996.240601,738.390564 
	C998.474976,736.491821 1002.507568,736.701050 1005.764343,736.022766 
	C1006.246155,735.922302 1006.763977,736.009644 1007.260559,735.962585 
	C1011.022095,735.606506 1013.181763,732.338623 1012.283691,728.657593 
	C1011.700195,726.265625 1011.185913,723.815857 1011.032043,721.367432 
	C1010.542053,713.572205 1010.366699,705.756531 1009.833191,697.964905 
	C1008.268005,675.106018 1006.565979,652.256592 1004.966553,629.399963 
	C1004.433167,621.777283 1004.109619,614.140015 1003.580078,606.517029 
	C1002.763062,594.755493 1001.826599,583.002258 1001.018005,571.240173 
	C1000.938477,570.083252 1001.395325,568.889465 1001.603210,567.712830 
	C1002.146057,567.674438 1002.688965,567.636047 1003.231812,567.597656 
	C1003.928101,571.214111 1004.163879,574.999939 1005.418091,578.411316 
	C1007.901611,585.166504 1011.015320,591.687378 1013.746521,598.354980 
	C1018.455078,609.849976 1023.299072,621.297119 1027.674927,632.919250 
	C1035.574829,653.900940 1043.116089,675.017395 1050.952515,696.023315 
	C1052.158203,699.255188 1053.914795,702.343567 1055.804810,705.245422 
	C1060.028931,711.730957 1060.206543,726.922485 1056.309082,732.585022 
	C1053.541260,736.606384 1051.564087,741.164185 1048.915405,745.277405 
	C1045.990845,749.819092 1043.458740,755.131714 1039.341797,758.228943 
	C1035.826660,760.873657 1030.329468,760.947144 1025.672852,761.997437 
	C1016.953369,763.964111 1008.174133,765.679932 999.504395,767.839600 
	C997.965454,768.222961 995.774536,770.199219 995.707642,771.531372 
	C995.458679,776.491882 995.818909,781.502869 996.223633,786.472656 
	C997.423035,801.199585 998.731750,815.917786 1000.038391,830.635742 
	C1000.904358,840.390442 1001.847290,850.138306 1002.742859,859.890442 
	C1003.805664,871.463074 1004.896301,883.033325 1005.898254,894.611267 
	C1006.983704,907.154114 1008.008606,919.702454 1009.001099,932.253052 
	C1009.334045,936.463623 1011.749207,937.971741 1015.673889,937.956726 
	C1021.839355,937.933167 1028.005493,937.990234 1034.170776,938.055481 
	C1038.620117,938.102600 1043.315430,939.189880 1047.473877,938.132812 
	C1064.029175,933.924744 1080.440674,929.139832 1096.857422,924.402283 
	C1106.074829,921.742249 1115.159424,918.622742 1124.372803,915.947693 
	C1140.289795,911.326172 1156.266968,906.913330 1172.203125,902.357178 
	C1175.665039,901.367371 1177.970093,899.843872 1177.207520,895.285095 
	C1174.388916,878.434692 1172.026367,861.508606 1169.350952,844.633484 
	C1167.016113,829.906860 1164.397217,815.225098 1162.088257,800.494690 
	C1160.909668,792.975647 1160.297852,785.368286 1159.142822,777.844971 
	C1157.229492,765.380981 1154.948608,752.972778 1153.090820,740.501160 
	C1152.079346,733.711243 1150.786499,733.065186 1144.070679,734.917053 
	C1134.146240,737.653687 1123.974487,739.491821 1114.047241,742.219543 
	C1109.610718,743.438538 1107.498291,741.555054 1106.852173,737.998230 
	C1106.399902,735.507935 1106.804077,732.399048 1107.965088,730.156189 
	C1114.255371,718.003784 1112.693970,701.163330 1099.086426,694.094849 
	C1097.446533,691.451172 1095.075806,689.001465 1094.312378,686.125183 
	C1092.484741,679.238220 1091.479614,672.136719 1090.022095,665.146912 
	C1087.282959,652.011292 1084.499756,638.884583 1081.660400,625.770325 
	C1077.705322,607.503418 1073.743530,589.237549 1069.665527,570.997925 
	C1067.117798,559.602173 1064.369385,548.251038 1061.677002,536.888000 
	C1058.244019,522.399719 1054.638184,507.950867 1051.356445,493.428619 
	C1046.321167,471.147430 1041.602783,448.794495 1036.554565,426.516327 
	C1032.195435,407.279236 1027.585815,388.098694 1023.005615,368.912506 
	C1022.685364,367.571045 1021.965027,365.621368 1020.964966,365.266266 
	C1016.337708,363.623352 1011.545776,362.444244 1006.408813,361.033722 
	C1006.408813,361.033722 1006.012024,360.933624 1005.802917,360.274750 
	C1004.906494,359.589203 1004.108643,358.652252 1003.098755,358.255951 
	C988.932251,352.696747 974.761841,347.145416 960.536743,341.738708 
	C954.433533,339.419006 948.409180,337.305756 946.279602,330.064026 
	C945.464844,327.293152 943.898926,324.743134 942.605103,321.408142 
	C942.629761,321.180145 942.654419,320.952179 942.947937,320.724396 
	C942.947937,320.724396 943.029541,320.444763 943.029541,320.444763 
	C943.029541,320.444763 942.673401,320.393677 942.549133,320.258789 
z"/>
<path fill="#000101" opacity="1.000000" stroke="none" 
	d="
M1006.012024,360.933624 
	C1006.012024,360.933624 1006.408813,361.033722 1006.765991,361.383423 
	C1010.039307,362.939423 1012.891968,364.344452 1015.887695,365.301697 
	C1019.629272,366.497253 1021.229858,368.791229 1022.104858,372.694641 
	C1036.771118,438.119110 1051.623413,503.501801 1066.426758,568.895569 
	C1074.913940,606.387939 1083.429688,643.874023 1091.765137,681.400085 
	C1092.283325,683.733398 1091.336182,686.392273 1090.905762,689.207275 
	C1082.719116,698.302185 1073.229736,704.216797 1060.694214,704.511230 
	C1056.923828,704.057983 1055.436035,701.864502 1054.278320,698.781372 
	C1039.237061,658.723999 1024.096924,618.703857 1008.970398,578.678650 
	C1005.606201,569.776978 1002.197815,560.892090 998.809753,551.999512 
	C998.448853,552.099976 998.087952,552.200439 997.727051,552.300964 
	C1001.800720,612.570068 1005.874390,672.839233 1009.978882,733.563599 
	C1005.533875,734.283875 1001.484070,735.146667 997.389282,735.536255 
	C994.272888,735.832825 993.008179,736.901489 992.469849,740.249817 
	C989.960999,755.853760 988.591553,771.871338 983.953918,786.855530 
	C973.677307,820.058899 961.957275,852.828186 950.288147,885.582886 
	C943.771179,903.875671 936.259827,921.470398 935.348145,941.590820 
	C933.795959,975.845032 929.840271,1009.984131 927.410522,1044.208252 
	C926.603760,1055.571655 924.140320,1066.875732 926.435791,1078.473145 
	C930.508240,1099.048828 934.592712,1119.661621 937.417786,1140.429565 
	C939.084106,1152.679443 943.594727,1161.700073 953.901123,1169.032227 
	C966.686462,1178.127808 978.934692,1186.722778 995.850098,1183.373169 
	C1001.032410,1182.347046 1004.735168,1185.504639 1006.794373,1190.270874 
	C1009.053040,1195.498779 1008.483032,1200.736816 1004.142456,1203.898926 
	C1000.066711,1206.868164 995.336853,1209.346436 990.521118,1210.818237 
	C974.720642,1215.647827 958.579163,1214.489136 942.472839,1212.441772 
	C934.289368,1211.401611 926.111877,1210.314209 917.799622,1209.230835 
	C917.128296,1212.040039 916.595520,1214.269653 916.032349,1216.626221 
	C913.049316,1216.626221 910.248169,1216.685425 907.450745,1216.609253 
	C904.709473,1216.534790 901.971924,1216.322266 899.189941,1216.167847 
	C899.477295,1227.010254 895.808716,1231.979004 885.767456,1234.697632 
	C883.211243,1235.389648 880.542053,1235.828613 877.899170,1236.009888 
	C858.485535,1237.341553 839.541260,1234.265747 821.506775,1227.527588 
	C809.689148,1223.112061 798.744873,1216.358643 787.852112,1210.875000 
	C788.023865,1215.267944 784.211304,1213.071777 782.212585,1212.306030 
	C766.823425,1206.409180 751.547852,1200.216309 736.207520,1194.190308 
	C733.675232,1193.195557 733.418213,1191.658936 734.478821,1189.497314 
	C741.222961,1175.751343 747.892822,1161.967651 754.849487,1148.330078 
	C755.460999,1147.131470 757.955566,1146.891724 759.576965,1146.210205 
	C761.221313,1145.518799 763.123535,1145.153931 764.467285,1144.085693 
	C769.373108,1140.185303 769.041687,1133.839478 771.250732,1128.666382 
	C799.169189,1063.286743 827.038269,997.885925 854.872986,932.470581 
	C855.770081,930.362366 856.767395,928.025940 856.708313,925.822998 
	C856.019958,900.178955 855.758301,874.500916 854.138672,848.910645 
	C852.375916,821.059326 844.856812,794.144653 838.718079,767.029358 
	C836.082214,755.386536 834.025391,743.612549 831.631165,731.522705 
	C810.177368,731.447021 788.803650,730.021545 768.218750,721.747314 
	C766.971191,720.632019 766.083496,719.451050 764.922729,719.039124 
	C759.917297,717.262329 759.699829,713.869324 760.599426,709.276611 
	C761.571716,704.313171 761.594360,699.163818 762.316650,693.830688 
	C764.437866,681.408630 766.341431,669.261108 768.097290,657.092346 
	C774.081055,615.623291 780.021240,574.147949 785.956787,532.671936 
	C787.038879,525.110718 788.020752,517.535278 789.048889,509.966339 
	C787.242676,511.283508 786.253540,512.781250 785.406128,514.355286 
	C776.572266,530.763367 767.669006,547.135437 759.028503,563.644836 
	C757.462585,566.636902 756.485535,570.148376 756.107239,573.517822 
	C752.254150,607.840820 752.368164,642.279480 753.390686,676.739075 
	C753.464294,679.217346 753.230957,681.704712 752.696533,684.106689 
	C739.554199,683.754333 726.855652,683.483215 713.701477,683.146973 
	C712.413696,683.045410 711.581787,682.985168 710.749268,682.976196 
	C700.718567,682.867798 701.936829,683.504761 702.614807,673.947327 
	C705.443970,634.071228 708.210327,594.190552 711.157898,554.323242 
	C711.693542,547.079102 711.340393,539.162048 714.181885,532.799011 
	C727.554871,502.852570 741.866150,473.324280 755.905884,443.676727 
	C766.364807,421.590820 778.063354,399.992615 781.298340,375.189606 
	C781.545593,373.293396 783.936401,371.009064 785.887085,370.104218 
	C809.604553,359.102264 833.430725,348.334869 857.210815,337.467377 
	C858.686279,336.793152 860.012329,335.791809 861.734741,335.015350 
	C863.485962,334.091980 865.161804,333.320831 866.289185,332.059448 
	C870.344788,327.521729 874.215210,322.818573 878.417603,318.074280 
	C878.862671,317.654755 879.045776,317.338959 879.184570,317.037506 
	C879.140320,317.051849 879.170898,317.139679 879.522949,317.023224 
	C902.526489,308.335114 922.778442,313.997467 941.858276,327.662537 
	C943.202881,329.773010 944.969482,331.398682 945.540771,333.370636 
	C946.939758,338.199310 950.593689,339.846649 954.765808,341.405029 
	C963.966003,344.841522 973.037964,348.619446 982.210571,352.131866 
	C990.109619,355.156586 998.075623,358.006470 1006.012024,360.933624 
M834.429504,1162.305176 
	C832.495361,1161.571411 830.561157,1160.837646 828.504150,1160.057251 
	C825.884460,1176.354126 854.901733,1208.973267 868.204041,1206.562012 
	C869.233154,1202.429565 869.983154,1198.570068 871.161926,1194.846191 
	C874.555603,1184.124634 878.122375,1173.457764 881.621155,1162.769409 
	C880.992737,1162.862915 880.364319,1162.956421 879.735901,1163.050049 
	C878.555969,1161.310791 876.609924,1159.690063 876.319641,1157.813110 
	C874.336548,1144.992554 872.715820,1132.116333 870.949219,1119.261841 
	C869.549377,1109.076538 868.108337,1098.897095 866.511353,1087.468262 
	C865.629761,1089.498291 865.260193,1090.232300 864.984863,1091.000244 
	C856.839417,1113.715454 848.696655,1136.431519 840.574707,1159.155151 
	C839.646606,1161.751709 838.947571,1164.555908 834.429504,1162.305176 
z"/>
<path fill="#D2EFFB" opacity="1.000000" stroke="none" 
	d="
M407.736450,334.836182 
	C423.656952,332.798950 439.526703,329.707092 455.508209,328.938385 
	C491.588562,327.202942 526.894165,331.986053 560.439514,346.085175 
	C607.770630,365.978546 643.136780,398.045166 659.321411,447.916595 
	C670.263184,481.633026 669.808411,515.554993 654.894104,548.302551 
	C645.928528,567.988281 633.175110,585.253174 617.409546,600.070496 
	C598.521729,617.822205 579.166321,635.075562 560.200562,652.745544 
	C548.672791,663.485657 537.241333,674.353516 526.228638,685.615845 
	C511.669647,700.504822 506.147491,719.635864 501.954315,739.372986 
	C500.131653,747.952148 498.053223,756.616333 494.796326,764.721741 
	C488.452148,780.510376 475.870728,788.493591 458.693909,789.915283 
	C458.127228,787.288940 458.004639,785.128174 458.004211,782.967346 
	C457.993164,729.205994 458.020203,675.444641 457.906647,621.683533 
	C457.901917,619.438171 456.607422,617.195557 455.913818,614.951660 
	C468.225159,603.552063 480.518127,592.132568 492.853485,580.758972 
	C503.250336,571.172913 513.964050,561.912964 524.052002,552.013977 
	C536.286011,540.009155 546.865662,526.568787 550.806885,509.473206 
	C556.934082,482.895111 549.579407,459.742676 530.759705,440.325928 
	C513.787231,422.814911 492.450226,415.407867 468.443512,414.870361 
	C463.286957,414.754913 458.124329,414.910706 452.789520,414.674835 
	C454.372131,414.108765 456.129669,413.809448 457.997925,413.491272 
	C457.997925,386.960785 457.965210,360.664093 458.040039,334.367737 
	C458.049225,331.142273 456.873627,329.740875 453.638672,330.012268 
	C447.021088,330.567383 440.382080,330.908875 433.781738,331.616852 
	C425.084930,332.549774 416.416870,333.750580 407.736450,334.836182 
z"/>
<path fill="#FDFFFE" opacity="1.000000" stroke="none" 
	d="
M407.532227,334.840179 
	C416.416870,333.750580 425.084930,332.549774 433.781738,331.616852 
	C440.382080,330.908875 447.021088,330.567383 453.638672,330.012268 
	C456.873627,329.740875 458.049225,331.142273 458.040039,334.367737 
	C457.965210,360.664093 457.997925,386.960785 457.997925,413.491272 
	C456.129669,413.809448 454.372131,414.108765 452.324951,414.631348 
	C451.579681,414.945526 451.123993,415.036469 450.043732,414.830811 
	C447.282501,414.999451 445.145844,415.464691 443.009186,415.929932 
	C441.903656,416.203644 440.798126,416.477386 439.223816,416.643433 
	C438.400146,416.453735 438.150269,416.581757 438.005341,416.919800 
	C437.590210,416.971924 437.175079,417.024017 436.100281,417.043457 
	C434.627167,417.341919 433.813751,417.673035 433.000336,418.004150 
	C432.429443,418.182190 431.858521,418.360260 430.582947,418.374817 
	C428.594482,418.785553 427.310669,419.359772 426.026855,419.934021 
	C418.829865,423.973511 410.997620,427.200073 404.569550,432.223541 
	C391.623810,442.340576 382.994781,456.174835 376.270294,470.895966 
	C370.069244,484.471252 365.207245,498.655823 359.682312,512.542969 
	C352.924866,529.528198 343.163025,543.768433 324.480133,549.227783 
	C285.719116,560.554138 249.689957,529.194214 254.313736,491.642181 
	C260.913177,438.044891 288.626099,397.901581 332.061493,367.539337 
	C347.526276,356.729126 364.120178,348.025146 382.804749,341.915405 
	C386.671692,340.848572 389.748322,339.768433 392.824982,338.688293 
	C392.824982,338.688293 392.905884,338.828430 393.146729,338.840759 
	C393.924072,338.602264 394.460632,338.351410 394.997162,338.100586 
	C395.486725,337.835266 395.976257,337.569946 397.016174,337.475281 
	C399.033875,337.139679 400.501190,336.633453 401.968506,336.127228 
	C402.552460,335.908661 403.136383,335.690094 404.379028,335.610657 
	C405.687592,335.523041 406.337402,335.296265 406.987213,335.069458 
	C406.987213,335.069458 407.328003,334.844177 407.532227,334.840179 
z"/>
<path fill="#2A9583" opacity="1.000000" stroke="none" 
	d="
M861.407837,334.942627 
	C860.012329,335.791809 858.686279,336.793152 857.210815,337.467377 
	C833.430725,348.334869 809.604553,359.102264 785.887085,370.104218 
	C783.936401,371.009064 781.545593,373.293396 781.298340,375.189606 
	C778.063354,399.992615 766.364807,421.590820 755.905884,443.676727 
	C741.866150,473.324280 727.554871,502.852570 714.181885,532.799011 
	C711.340393,539.162048 711.693542,547.079102 711.157898,554.323242 
	C708.210327,594.190552 705.443970,634.071228 702.614807,673.947327 
	C701.936829,683.504761 700.718567,682.867798 710.749268,682.976196 
	C711.581787,682.985168 712.413696,683.045410 713.746643,683.507202 
	C714.826355,686.372314 715.405334,688.812134 715.834229,691.581299 
	C714.323364,696.351074 712.741272,700.737488 711.640015,705.241333 
	C706.822510,724.942688 716.013611,741.034302 735.177979,746.094055 
	C739.630432,747.269653 743.095093,748.818604 744.946167,753.363953 
	C745.647949,755.087097 747.299377,756.757202 748.950684,757.660400 
	C750.426086,758.467407 752.497314,758.185120 754.305603,758.383545 
	C754.166870,756.723938 754.438293,754.882324 753.799927,753.444458 
	C752.638367,750.827759 750.936584,748.450806 750.117676,747.076965 
	C752.190247,744.019287 754.530762,742.082214 754.697571,739.973145 
	C754.963257,736.614807 752.648010,734.622620 748.852661,734.918640 
	C748.366699,734.956482 747.451538,733.561096 747.268921,732.714539 
	C746.465576,728.989746 745.727600,725.240295 745.216736,721.465820 
	C744.717590,717.778381 746.418823,716.306519 750.188538,716.873169 
	C753.433533,717.360962 754.915649,718.727295 755.457458,722.230652 
	C756.409668,728.387146 757.967773,734.480713 759.758606,740.454773 
	C760.199402,741.925354 762.514587,742.833984 763.968140,744.000916 
	C765.054321,742.469971 766.877747,741.035706 767.093384,739.390747 
	C767.846619,733.644958 768.044250,727.826477 768.453003,722.035583 
	C788.803650,730.021545 810.177368,731.447021 831.631165,731.522705 
	C834.025391,743.612549 836.082214,755.386536 838.718079,767.029358 
	C844.856812,794.144653 852.375916,821.059326 854.138672,848.910645 
	C855.758301,874.500916 856.019958,900.178955 856.708313,925.822998 
	C856.767395,928.025940 855.770081,930.362366 854.872986,932.470581 
	C827.038269,997.885925 799.169189,1063.286743 771.250732,1128.666382 
	C769.041687,1133.839478 769.373108,1140.185303 764.467285,1144.085693 
	C763.123535,1145.153931 761.221313,1145.518799 759.576965,1146.210205 
	C757.955566,1146.891724 755.460999,1147.131470 754.849487,1148.330078 
	C747.892822,1161.967651 741.222961,1175.751343 734.478821,1189.497314 
	C733.418213,1191.658936 733.675232,1193.195557 736.207520,1194.190308 
	C751.547852,1200.216309 766.823425,1206.409180 782.212585,1212.306030 
	C784.211304,1213.071777 788.023865,1215.267944 787.852112,1210.875000 
	C798.744873,1216.358643 809.689148,1223.112061 821.506775,1227.527588 
	C839.541260,1234.265747 858.485535,1237.341553 877.899170,1236.009888 
	C880.542053,1235.828613 883.211243,1235.389648 885.767456,1234.697632 
	C895.808716,1231.979004 899.477295,1227.010254 899.189941,1216.167847 
	C901.971924,1216.322266 904.709473,1216.534790 907.450745,1216.609253 
	C910.248169,1216.685425 913.049316,1216.626221 916.032349,1216.626221 
	C916.595520,1214.269653 917.128296,1212.040039 917.799622,1209.230835 
	C926.111877,1210.314209 934.289368,1211.401611 942.472839,1212.441772 
	C958.579163,1214.489136 974.720642,1215.647827 990.521118,1210.818237 
	C995.336853,1209.346436 1000.066711,1206.868164 1004.142456,1203.898926 
	C1008.483032,1200.736816 1009.053040,1195.498779 1006.794373,1190.270874 
	C1004.735168,1185.504639 1001.032410,1182.347046 995.850098,1183.373169 
	C978.934692,1186.722778 966.686462,1178.127808 953.901123,1169.032227 
	C943.594727,1161.700073 939.084106,1152.679443 937.417786,1140.429565 
	C934.592712,1119.661621 930.508240,1099.048828 926.435791,1078.473145 
	C924.140320,1066.875732 926.603760,1055.571655 927.410522,1044.208252 
	C929.840271,1009.984131 933.795959,975.845032 935.348145,941.590820 
	C936.259827,921.470398 943.771179,903.875671 950.288147,885.582886 
	C961.957275,852.828186 973.677307,820.058899 983.953918,786.855530 
	C988.591553,771.871338 989.960999,755.853760 992.469849,740.249817 
	C993.008179,736.901489 994.272888,735.832825 997.389282,735.536255 
	C1001.484070,735.146667 1005.533875,734.283875 1009.978882,733.563599 
	C1005.874390,672.839233 1001.800720,612.570068 997.727051,552.300964 
	C998.087952,552.200439 998.448853,552.099976 998.809753,551.999512 
	C1002.197815,560.892090 1005.606201,569.776978 1008.970398,578.678650 
	C1024.096924,618.703857 1039.237061,658.723999 1054.278320,698.781372 
	C1055.436035,701.864502 1056.923828,704.057983 1060.541504,704.982056 
	C1061.099487,712.764832 1061.527588,719.865540 1061.768311,727.341797 
	C1056.167725,737.819214 1050.824463,747.960022 1045.247437,757.970459 
	C1044.597412,759.137329 1042.742920,759.968445 1041.295898,760.303345 
	C1028.482666,763.268738 1015.681641,766.325623 1002.773926,768.822876 
	C998.074402,769.732056 996.790466,771.818542 997.256897,776.202576 
	C998.101746,784.144287 998.652283,792.117126 999.344666,800.075317 
	C1001.898315,829.428589 1004.476929,858.779663 1007.011047,888.134644 
	C1008.214294,902.073914 1009.418091,916.014221 1010.446167,929.966980 
	C1010.728333,933.796143 1012.080139,935.508911 1016.181458,935.534302 
	C1022.499817,935.573425 1028.813599,936.507996 1035.130981,936.525635 
	C1040.384644,936.540283 1045.890259,936.652344 1050.855713,935.227539 
	C1089.566284,924.120056 1128.176270,912.661682 1166.810059,901.286743 
	C1176.981445,898.291931 1176.021362,899.960083 1174.365112,889.195435 
	C1167.910645,847.248413 1161.362183,805.315857 1154.825684,763.381470 
	C1153.449585,754.552307 1151.976074,745.738403 1150.438477,736.245422 
	C1135.374756,739.502319 1120.856934,742.641235 1106.362549,745.775024 
	C1105.176514,740.577576 1104.151855,736.087646 1103.285034,731.323730 
	C1110.221313,723.062622 1111.230713,714.117432 1106.004150,705.241089 
	C1103.918457,701.698669 1101.224976,698.514160 1098.926880,695.064087 
	C1099.045654,694.961487 1099.286011,694.759827 1099.286011,694.759827 
	C1112.693970,701.163330 1114.255371,718.003784 1107.965088,730.156189 
	C1106.804077,732.399048 1106.399902,735.507935 1106.852173,737.998230 
	C1107.498291,741.555054 1109.610718,743.438538 1114.047241,742.219543 
	C1123.974487,739.491821 1134.146240,737.653687 1144.070679,734.917053 
	C1150.786499,733.065186 1152.079346,733.711243 1153.090820,740.501160 
	C1154.948608,752.972778 1157.229492,765.380981 1159.142822,777.844971 
	C1160.297852,785.368286 1160.909668,792.975647 1162.088257,800.494690 
	C1164.397217,815.225098 1167.016113,829.906860 1169.350952,844.633484 
	C1172.026367,861.508606 1174.388916,878.434692 1177.207520,895.285095 
	C1177.970093,899.843872 1175.665039,901.367371 1172.203125,902.357178 
	C1156.266968,906.913330 1140.289795,911.326172 1124.372803,915.947693 
	C1115.159424,918.622742 1106.074829,921.742249 1096.857422,924.402283 
	C1080.440674,929.139832 1064.029175,933.924744 1047.473877,938.132812 
	C1043.315430,939.189880 1038.620117,938.102600 1034.170776,938.055481 
	C1028.005493,937.990234 1021.839355,937.933167 1015.673889,937.956726 
	C1011.749207,937.971741 1009.334045,936.463623 1009.001099,932.253052 
	C1008.008606,919.702454 1006.983704,907.154114 1005.898254,894.611267 
	C1004.896301,883.033325 1003.805664,871.463074 1002.742859,859.890442 
	C1001.847290,850.138306 1000.904358,840.390442 1000.038391,830.635742 
	C998.731750,815.917786 997.423035,801.199585 996.223633,786.472656 
	C995.818909,781.502869 995.458679,776.491882 995.707642,771.531372 
	C995.774536,770.199219 997.965454,768.222961 999.504395,767.839600 
	C1008.174133,765.679932 1016.953369,763.964111 1025.672852,761.997437 
	C1030.329468,760.947144 1035.826660,760.873657 1039.341797,758.228943 
	C1043.458740,755.131714 1045.990845,749.819092 1048.915405,745.277405 
	C1051.564087,741.164185 1053.541260,736.606384 1056.309082,732.585022 
	C1060.206543,726.922485 1060.028931,711.730957 1055.804810,705.245422 
	C1053.914795,702.343567 1052.158203,699.255188 1050.952515,696.023315 
	C1043.116089,675.017395 1035.574829,653.900940 1027.674927,632.919250 
	C1023.299072,621.297119 1018.455078,609.849976 1013.746521,598.354980 
	C1011.015320,591.687378 1007.901611,585.166504 1005.418091,578.411316 
	C1004.163879,574.999939 1003.928101,571.214111 1003.231812,567.597656 
	C1002.688965,567.636047 1002.146057,567.674438 1001.603210,567.712830 
	C1001.395325,568.889465 1000.938477,570.083252 1001.018005,571.240173 
	C1001.826599,583.002258 1002.763062,594.755493 1003.580078,606.517029 
	C1004.109619,614.140015 1004.433167,621.777283 1004.966553,629.399963 
	C1006.565979,652.256592 1008.268005,675.106018 1009.833191,697.964905 
	C1010.366699,705.756531 1010.542053,713.572205 1011.032043,721.367432 
	C1011.185913,723.815857 1011.700195,726.265625 1012.283691,728.657593 
	C1013.181763,732.338623 1011.022095,735.606506 1007.260559,735.962585 
	C1006.763977,736.009644 1006.246155,735.922302 1005.764343,736.022766 
	C1002.507568,736.701050 998.474976,736.491821 996.240601,738.390564 
	C994.266174,740.068298 994.010376,744.059265 993.497375,747.113098 
	C991.736877,757.594910 990.537048,768.180420 988.496094,778.603516 
	C985.054688,796.179016 979.622925,813.186829 973.122986,829.888123 
	C969.094482,840.238892 965.881958,850.904175 962.046204,861.333862 
	C958.847290,870.031799 955.244812,878.580750 951.874512,887.216614 
	C947.722534,897.855225 943.185059,908.373840 939.699280,919.228577 
	C938.066101,924.314392 938.486267,930.064941 938.013733,935.517456 
	C936.036011,958.338745 933.991882,981.154602 932.132751,1003.985596 
	C930.933411,1018.714478 930.045044,1033.468384 928.953979,1048.206543 
	C928.427185,1055.323608 927.047729,1062.459473 927.342346,1069.533203 
	C927.650940,1076.944214 929.451538,1084.299683 930.693481,1091.663696 
	C932.433044,1101.978516 934.145447,1112.300171 936.080200,1122.579346 
	C938.013489,1132.850830 940.032104,1143.114258 942.412659,1153.287842 
	C942.981201,1155.717896 944.684692,1158.341553 946.641418,1159.907104 
	C954.552795,1166.236450 962.450317,1172.683838 970.970154,1178.120239 
	C977.731384,1182.434448 985.783386,1182.855103 993.704773,1181.567627 
	C1002.202881,1180.186401 1006.390381,1182.979126 1009.220032,1192.248535 
	C1011.133301,1198.516113 1007.695984,1205.112671 1001.657349,1208.346069 
	C983.598328,1218.015991 964.449707,1216.766724 945.146912,1214.505859 
	C938.057678,1213.675781 930.983948,1212.636475 923.871887,1212.137451 
	C922.255859,1212.024048 919.596863,1213.356201 918.998230,1214.717896 
	C917.305359,1218.568604 914.604980,1219.395264 910.954407,1218.854492 
	C909.474976,1218.635132 908.016052,1218.278320 906.536804,1218.057617 
	C902.631836,1217.475098 901.392029,1218.829102 900.734436,1223.070801 
	C900.179688,1226.649414 897.506653,1231.251587 894.453735,1232.794800 
	C888.990906,1235.556519 882.606262,1237.376343 876.484436,1237.793823 
	C855.089355,1239.252441 834.463501,1234.839111 814.495728,1227.459717 
	C808.802063,1225.355591 803.584778,1221.953003 798.170654,1219.104614 
	C794.031494,1216.927124 790.286316,1214.852783 785.088745,1214.337402 
	C777.707092,1213.605591 770.571167,1210.052856 763.415405,1207.469604 
	C753.941406,1204.049316 744.553040,1200.392334 735.120911,1196.855713 
	C731.237061,1195.399292 731.512695,1192.193237 732.551086,1189.390503 
	C734.565552,1183.953369 737.035522,1178.677734 739.466248,1173.404053 
	C742.577393,1166.654175 745.636841,1159.867065 749.100830,1153.297729 
	C751.429932,1148.880737 753.458008,1144.134521 759.620605,1143.080322 
	C761.924744,1142.686279 764.732361,1140.195923 765.718750,1137.959351 
	C771.878723,1123.991577 777.546631,1109.807739 783.457642,1095.728882 
	C789.854797,1080.492188 796.446533,1065.336304 802.745667,1050.059448 
	C806.524902,1040.893921 809.703125,1031.479614 813.527161,1022.333984 
	C817.035950,1013.942261 821.163879,1005.811584 824.808716,997.473938 
	C828.998230,987.890198 832.912903,978.186829 837.026733,968.569580 
	C841.860596,957.269043 846.916443,946.061035 851.577393,934.690491 
	C852.930054,931.390686 853.907227,927.678528 853.948425,924.142456 
	C854.168091,905.314270 854.570068,886.461304 853.844666,867.658020 
	C853.327637,854.256592 851.574890,840.852600 849.558411,827.573486 
	C847.542419,814.298218 844.680115,801.141113 841.871033,788.000122 
	C839.878662,778.679749 837.185974,769.510315 835.134705,760.200989 
	C833.779602,754.051331 832.871948,747.791748 832.014954,741.546936 
	C831.262512,736.064270 829.215576,734.542297 823.648438,733.857422 
	C808.210388,731.958130 792.419189,732.626770 777.447388,727.162964 
	C770.741577,724.715759 770.161377,725.535583 769.945801,732.563965 
	C769.855225,735.515869 769.465576,738.559326 768.585693,741.364746 
	C766.859680,746.867859 762.850037,747.527344 759.116333,743.135437 
	C758.595825,742.523193 758.327820,741.696289 757.698730,740.507263 
	C755.891479,743.411072 754.714905,745.301514 753.483459,747.280151 
	C754.595093,749.045593 755.986084,750.728027 756.790344,752.655273 
	C757.996704,755.546143 758.548279,759.363220 755.320984,760.566589 
	C752.886292,761.474426 749.324036,760.288147 746.614929,759.177307 
	C745.014282,758.520996 743.611389,756.372498 742.968567,754.589050 
	C741.352478,750.105835 737.752075,749.170532 733.757874,748.057251 
	C728.586792,746.615967 722.342041,745.752747 718.875671,742.309204 
	C714.666565,738.127686 712.155396,731.757019 710.184509,725.904175 
	C706.288513,714.334656 709.084595,703.011230 713.036743,691.892029 
	C714.625793,687.421021 712.454712,684.796875 707.727539,684.975342 
	C700.986877,685.229858 699.379517,683.191956 700.276611,676.606689 
	C701.126770,670.366089 701.502808,664.057678 701.993591,657.771851 
	C703.298462,641.056885 704.601746,624.341431 705.810059,607.619324 
	C706.624023,596.354248 707.324280,585.080383 707.986755,573.805237 
	C708.737000,561.035950 709.283752,548.253418 710.182312,535.495178 
	C710.336670,533.303467 711.702881,531.156006 712.683777,529.070190 
	C719.453247,514.675476 726.175476,500.257294 733.098145,485.936218 
	C739.130493,473.456879 745.528381,461.153992 751.533997,448.662201 
	C756.208740,438.938629 760.513000,429.037262 765.013062,419.229187 
	C767.075378,414.734283 769.598572,410.408142 771.216980,405.763062 
	C773.207581,400.049988 774.555237,394.104614 776.023010,388.220337 
	C777.182861,383.570862 777.875000,378.795959 779.197632,374.198334 
	C780.483154,369.729828 783.700500,367.643066 788.330994,366.181549 
	C795.736145,363.844269 802.750793,360.236450 809.866638,357.024384 
	C818.902222,352.945770 827.855225,348.684296 836.879944,344.581329 
	C843.212219,341.702423 849.651672,339.054047 855.922729,336.051025 
	C856.917969,335.574402 857.939270,333.701263 857.826782,332.587067 
	C856.732117,321.745697 856.177917,310.976227 851.087769,300.700104 
	C848.578186,295.633789 849.791748,288.708984 849.401306,282.619995 
	C849.328491,281.485229 849.973755,280.246429 849.722595,279.189972 
	C846.835571,267.045929 849.452332,254.991852 851.375793,243.219299 
	C853.224304,231.905853 856.889465,220.770218 864.608887,211.501755 
	C874.171936,200.019882 886.796814,194.591187 901.026367,192.061615 
	C913.382507,189.865051 923.454468,195.409424 933.769226,201.154953 
	C942.937683,206.261932 949.913025,213.801163 956.622253,221.217148 
	C960.820129,225.857300 962.766052,233.376770 963.754578,239.902359 
	C965.787720,253.323898 961.244080,265.881012 955.897217,277.973877 
	C952.414490,285.850647 947.563110,293.192657 944.749268,301.270416 
	C942.815247,306.822449 943.324890,313.225769 942.408203,319.487061 
	C941.344788,318.725861 940.615479,317.726227 939.913696,316.320923 
	C940.307861,311.276154 940.674500,306.637054 941.340820,301.824341 
	C947.890930,287.736542 955.006470,274.133423 960.152649,259.822205 
	C965.482300,245.001038 962.223145,231.017151 951.469421,219.016464 
	C943.922424,210.594360 935.181946,203.703568 925.007263,198.971252 
	C919.249084,196.293060 912.807922,193.409241 906.714844,193.494919 
	C896.033142,193.645096 885.882080,197.487991 876.829529,203.516708 
	C862.818604,212.847519 856.837585,227.186829 853.306702,242.702499 
	C851.948608,248.670303 852.327454,255.033371 851.890625,261.602295 
	C851.541077,264.730042 851.215881,267.471832 850.786255,270.467834 
	C850.747192,271.076111 850.812439,271.430084 850.754272,272.223206 
	C850.776611,277.029022 850.860291,281.398987 851.088745,285.761322 
	C851.256653,288.967102 851.614258,292.162964 851.852051,295.500671 
	C851.816833,295.638123 851.981934,295.868927 851.934265,296.258698 
	C853.228943,299.454224 854.571289,302.260010 855.918823,305.032959 
	C855.924133,305.000153 855.893677,305.065308 855.897217,305.330719 
	C855.994080,305.746460 856.087463,305.896790 856.208740,306.426697 
	C857.960388,316.185089 859.684143,325.563843 861.407837,334.942627 
M753.922668,724.037476 
	C752.419495,722.416016 750.708740,719.283936 749.452209,719.456604 
	C745.704346,719.971619 747.417542,723.113708 747.850952,725.431030 
	C748.003479,726.246582 748.028137,727.197632 748.477234,727.824646 
	C749.695557,729.525757 751.109924,731.086426 752.446533,732.702759 
	C752.967468,730.769348 753.531433,728.845947 753.984680,726.896790 
	C754.130798,726.268188 753.985535,725.571777 753.922668,724.037476 
z"/>
<path fill="#FCFEFE" opacity="1.000000" stroke="none" 
	d="
M455.678406,615.021240 
	C456.607422,617.195557 457.901917,619.438171 457.906647,621.683533 
	C458.020203,675.444641 457.993164,729.205994 458.004211,782.967346 
	C458.004639,785.128174 458.127228,787.288940 458.281311,789.944702 
	C458.369751,790.439697 458.311523,790.464905 457.812500,790.316040 
	C450.484222,789.812683 443.654999,789.458191 436.825745,789.103699 
	C436.825745,789.103699 436.384247,789.084595 436.108032,788.853577 
	C435.537048,788.428833 435.267029,788.457764 435.021790,788.709351 
	C413.716187,783.039673 401.283936,766.697998 400.169342,741.664551 
	C398.455780,703.177856 408.769104,668.403076 433.915771,638.026978 
	C434.703674,637.527771 434.873077,637.248596 434.930145,636.901245 
	C434.930145,636.901245 434.980011,636.974854 435.172607,636.834229 
	C435.522614,636.389526 435.680054,636.085327 435.837494,635.781189 
	C435.837494,635.781189 435.847778,635.860596 436.069519,635.750610 
	C436.478088,635.324341 436.664917,635.008057 436.851746,634.691772 
	C436.870789,634.400452 436.996002,634.165710 437.700928,633.821350 
	C438.475037,633.166504 438.775543,632.677979 439.076050,632.189453 
	C439.076080,632.189453 439.050537,632.067078 439.310242,631.951782 
	C439.809875,631.635803 439.959076,631.381897 440.017517,631.074707 
	C440.497589,630.465759 440.977692,629.856750 441.945496,629.018921 
	C442.714355,628.595154 442.899658,628.332581 442.989105,628.002441 
	C442.989105,628.002441 442.996002,627.995117 443.220581,627.880249 
	C443.721039,627.553040 443.887848,627.275269 443.945526,626.931885 
	C443.945526,626.931885 443.995850,626.997498 444.197815,626.872314 
	C444.576813,626.464172 444.753876,626.181091 444.930908,625.898071 
	C444.930908,625.898071 444.977051,625.970093 445.172119,625.845154 
	C445.547760,625.434448 445.728333,625.148682 445.908936,624.862854 
	C445.908905,624.862854 445.938934,624.941101 446.141327,624.833984 
	C446.546478,624.455750 446.749207,624.184692 446.951965,623.913574 
	C446.987396,623.566162 447.151245,623.296875 447.904144,622.910156 
	C448.540588,622.424316 448.716339,622.133972 448.892090,621.843567 
	C448.892090,621.843567 448.918671,621.923401 449.121490,621.809387 
	C449.512115,621.408691 449.699890,621.121948 449.887665,620.835266 
	C449.887665,620.835266 449.911682,620.914551 450.117371,620.809204 
	C450.517914,620.421814 450.712799,620.139771 450.907654,619.857788 
	C450.907684,619.857788 450.933411,619.935181 451.135773,619.826233 
	C451.535004,619.440063 451.731842,619.162842 451.928711,618.885620 
	C451.928741,618.885620 451.955841,618.961853 452.158081,618.846313 
	C452.551086,618.450989 452.741821,618.171082 452.932556,617.891235 
	C452.932556,617.891235 452.963562,617.964111 453.161713,617.836426 
	C453.532501,617.413818 453.705139,617.118896 453.877747,616.823975 
	C453.877747,616.823975 453.991516,616.907288 454.192841,616.956665 
	C454.576996,617.028992 454.759857,617.051819 455.003540,617.151550 
	C455.064362,617.228394 455.345978,617.202148 455.345978,617.202148 
	C455.345978,617.202148 455.087463,616.932007 455.067291,616.673218 
	C455.013672,616.244507 454.980194,616.074707 454.946686,615.904846 
	C454.978149,615.551819 455.143585,615.280518 455.678406,615.021240 
z"/>
<path fill="#FDFFFE" opacity="1.000000" stroke="none" 
	d="
M417.000305,842.024658 
	C417.380127,841.669861 417.759918,841.315063 418.672058,840.831604 
	C419.448608,840.430969 419.692810,840.158997 419.937012,839.887024 
	C419.937042,839.887024 419.976349,839.978027 420.309692,839.975891 
	C422.075439,838.955566 423.507843,837.937317 424.940216,836.919128 
	C424.940216,836.919128 424.983765,837.003479 425.322449,837.013306 
	C426.769592,836.346191 427.878052,835.669312 428.986511,834.992371 
	C428.986481,834.992371 428.997559,834.997559 429.351501,835.029663 
	C430.810730,834.443787 431.916077,833.825806 433.021393,833.207825 
	C433.374298,833.088013 433.727203,832.968140 434.803253,832.904236 
	C440.759277,832.314880 445.977173,831.352173 451.228790,831.104980 
	C457.758606,830.797546 457.980499,831.233215 457.982452,837.741699 
	C457.992584,871.550171 458.033264,905.358765 457.962067,939.167053 
	C457.937256,950.943726 459.984467,950.369751 446.907288,951.064697 
	C446.472229,951.026917 446.037201,950.989197 445.011597,950.680298 
	C443.536163,950.331665 442.651306,950.254272 441.766418,950.176880 
	C427.495728,947.953430 415.466248,941.412109 406.052948,930.574585 
	C390.361115,912.508484 388.147888,883.281738 400.842896,860.004639 
	C401.580292,859.116882 401.804718,858.599304 402.029114,858.081726 
	C402.029114,858.081726 402.004242,858.020203 402.244354,857.879395 
	C402.742889,857.500793 402.877869,857.206482 402.889374,856.855530 
	C402.889374,856.855530 402.922974,856.930481 403.144073,856.789612 
	C403.595581,856.133301 403.825989,855.617798 404.056396,855.102356 
	C404.056396,855.102356 404.021698,855.042297 404.257568,854.897339 
	C404.748169,854.520020 404.891449,854.232239 404.923187,853.888916 
	C404.923187,853.888916 404.963898,853.961853 405.157959,853.828369 
	C405.520599,853.396240 405.689148,853.097595 405.857666,852.799011 
	C405.857697,852.799011 405.901794,852.900208 406.184021,852.852234 
	C407.004913,851.956665 407.543610,851.109070 408.082275,850.261475 
	C408.250153,849.937622 408.417999,849.613770 409.043640,849.059448 
	C409.776886,848.644348 409.953308,848.390869 410.030640,848.068359 
	C410.030640,848.068359 410.011261,848.006470 410.261200,847.937195 
	C410.786957,847.687622 410.965118,847.437683 411.045593,847.118103 
	C411.045593,847.118103 411.057404,847.046204 411.384918,847.010437 
	C412.045990,846.528381 412.379547,846.082092 412.713104,845.635803 
	C412.713104,845.635803 412.881409,845.886169 413.136963,845.814575 
	C414.231415,844.789307 415.070312,843.835693 415.909241,842.882080 
	C415.909241,842.882080 415.957458,842.966614 416.154694,842.868164 
	C416.568054,842.521362 416.784149,842.273010 417.000305,842.024658 
z"/>
<path fill="#D2EFFB" opacity="1.000000" stroke="none" 
	d="
M447.216583,951.352905 
	C459.984467,950.369751 457.937256,950.943726 457.962067,939.167053 
	C458.033264,905.358765 457.992584,871.550171 457.982452,837.741699 
	C457.980499,831.233215 457.758606,830.797546 451.228790,831.104980 
	C445.977173,831.352173 440.759277,832.314880 435.081848,832.877930 
	C480.966278,818.361450 519.838318,853.024414 516.802307,896.377441 
	C514.465637,929.744263 485.090271,952.517578 454.512115,951.765808 
	C452.183746,951.708618 449.854645,951.682007 447.216583,951.352905 
z"/>
<path fill="#2A9583" opacity="1.000000" stroke="none" 
	d="
M1091.070801,688.899719 
	C1091.336182,686.392273 1092.283325,683.733398 1091.765137,681.400085 
	C1083.429688,643.874023 1074.913940,606.387939 1066.426758,568.895569 
	C1051.623413,503.501801 1036.771118,438.119110 1022.104858,372.694641 
	C1021.229858,368.791229 1019.629272,366.497253 1015.887695,365.301697 
	C1012.891968,364.344452 1010.039307,362.939423 1006.967957,361.416046 
	C1011.545776,362.444244 1016.337708,363.623352 1020.964966,365.266266 
	C1021.965027,365.621368 1022.685364,367.571045 1023.005615,368.912506 
	C1027.585815,388.098694 1032.195435,407.279236 1036.554565,426.516327 
	C1041.602783,448.794495 1046.321167,471.147430 1051.356445,493.428619 
	C1054.638184,507.950867 1058.244019,522.399719 1061.677002,536.888000 
	C1064.369385,548.251038 1067.117798,559.602173 1069.665527,570.997925 
	C1073.743530,589.237549 1077.705322,607.503418 1081.660400,625.770325 
	C1084.499756,638.884583 1087.282959,652.011292 1090.022095,665.146912 
	C1091.479614,672.136719 1092.484741,679.238220 1094.312378,686.125183 
	C1095.075806,689.001465 1097.446533,691.451172 1099.186279,694.427368 
	C1099.286011,694.759827 1099.045654,694.961487 1098.624023,694.928955 
	C1095.825195,692.897522 1093.447998,690.898621 1091.070801,688.899719 
z"/>
<path fill="#9DADC4" opacity="1.000000" stroke="none" 
	d="
M939.886169,316.726562 
	C940.615479,317.726227 941.344788,318.725861 942.312622,319.900452 
	C942.551147,320.075378 942.549133,320.258789 942.583801,320.407166 
	C942.618469,320.555573 942.679077,320.724182 942.679077,320.724182 
	C942.654419,320.952179 942.629761,321.180145 942.467712,322.080505 
	C942.132385,324.280304 941.934387,325.807800 941.736450,327.335266 
	C922.778442,313.997467 902.526489,308.335114 879.483032,316.638733 
	C880.412720,314.506439 881.346130,311.600983 883.116699,310.940857 
	C898.820801,305.086273 914.570251,303.614197 930.202148,312.211060 
	C930.921265,312.578705 931.456604,312.726898 932.227112,312.925171 
	C932.462280,312.975281 932.939392,313.035095 933.063843,313.241028 
	C933.395996,313.706024 933.659668,313.880646 933.980347,313.995544 
	C933.981445,314.020325 934.031067,314.019012 934.140503,314.219330 
	C934.454590,314.661530 934.712036,314.815155 935.219238,315.089050 
	C935.951904,315.464691 936.487549,315.631775 937.224854,316.051147 
	C938.246460,316.444489 939.066345,316.585541 939.886169,316.726562 
z"/>
<path fill="#2A9583" opacity="1.000000" stroke="none" 
	d="
M941.858276,327.662537 
	C941.934387,325.807800 942.132385,324.280304 942.502808,322.422638 
	C943.898926,324.743134 945.464844,327.293152 946.279602,330.064026 
	C948.409180,337.305756 954.433533,339.419006 960.536743,341.738708 
	C974.761841,347.145416 988.932251,352.696747 1003.098755,358.255951 
	C1004.108643,358.652252 1004.906494,359.589203 1005.907471,360.604187 
	C998.075623,358.006470 990.109619,355.156586 982.210571,352.131866 
	C973.037964,348.619446 963.966003,344.841522 954.765808,341.405029 
	C950.593689,339.846649 946.939758,338.199310 945.540771,333.370636 
	C944.969482,331.398682 943.202881,329.773010 941.858276,327.662537 
z"/>
<path fill="#D2EFFB" opacity="1.000000" stroke="none" 
	d="
M437.107300,789.391113 
	C443.654999,789.458191 450.484222,789.812683 457.785767,790.298950 
	C451.301666,790.179993 444.345245,789.929199 437.107300,789.391113 
z"/>
<path fill="#D2EFFB" opacity="1.000000" stroke="none" 
	d="
M392.431671,338.671814 
	C389.748322,339.768433 386.671692,340.848572 383.181213,341.886475 
	C385.857697,340.781250 388.948029,339.718292 392.431671,338.671814 
z"/>
<path fill="#D2EFFB" opacity="1.000000" stroke="none" 
	d="
M443.404724,415.974976 
	C445.145844,415.464691 447.282501,414.999451 449.698639,414.762695 
	C447.918854,415.334106 445.859558,415.677032 443.404724,415.974976 
z"/>
<path fill="#D2EFFB" opacity="1.000000" stroke="none" 
	d="
M424.601318,836.932617 
	C423.507843,837.937317 422.075439,838.955566 420.273071,839.942505 
	C421.356171,838.922913 422.809265,837.934509 424.601318,836.932617 
z"/>
<path fill="#D2EFFB" opacity="1.000000" stroke="none" 
	d="
M426.379456,419.979736 
	C427.310669,419.359772 428.594482,418.785553 430.280426,418.326111 
	C429.365753,418.969086 428.048889,419.497253 426.379456,419.979736 
z"/>
<path fill="#D2EFFB" opacity="1.000000" stroke="none" 
	d="
M401.603882,336.079773 
	C400.501190,336.633453 399.033875,337.139679 397.297729,337.473358 
	C398.432373,336.877960 399.835815,336.455139 401.603882,336.079773 
z"/>
<path fill="#D2EFFB" opacity="1.000000" stroke="none" 
	d="
M415.599121,842.944824 
	C415.070312,843.835693 414.231415,844.789307 413.036621,845.701965 
	C413.550110,844.776489 414.419556,843.891968 415.599121,842.944824 
z"/>
<path fill="#D2EFFB" opacity="1.000000" stroke="none" 
	d="
M432.694641,833.178223 
	C431.916077,833.825806 430.810730,834.443787 429.351013,835.024536 
	C430.120331,834.374451 431.244080,833.761536 432.694641,833.178223 
z"/>
<path fill="#D2EFFB" opacity="1.000000" stroke="none" 
	d="
M428.651459,834.995178 
	C427.878052,835.669312 426.769592,836.346191 425.292297,836.976074 
	C426.054413,836.285400 427.185425,835.641663 428.651459,834.995178 
z"/>
<path fill="#D2EFFB" opacity="1.000000" stroke="none" 
	d="
M407.788849,850.328369 
	C407.543610,851.109070 407.004913,851.956665 406.137360,852.822754 
	C406.370789,852.025879 406.933075,851.210632 407.788849,850.328369 
z"/>
<path fill="#D2EFFB" opacity="1.000000" stroke="none" 
	d="
M441.990448,950.447510 
	C442.651306,950.254272 443.536163,950.331665 444.690582,950.613770 
	C444.044891,950.785034 443.129700,950.751587 441.990448,950.447510 
z"/>
<path fill="#D2EFFB" opacity="1.000000" stroke="none" 
	d="
M433.350159,418.025879 
	C433.813751,417.673035 434.627167,417.341919 435.784180,417.046570 
	C435.318512,417.404053 434.509277,417.725830 433.350159,418.025879 
z"/>
<path fill="#D2EFFB" opacity="1.000000" stroke="none" 
	d="
M394.693268,338.049286 
	C394.460632,338.351410 393.924072,338.602264 393.084076,338.789551 
	C393.316864,338.483337 393.853119,338.240662 394.693268,338.049286 
z"/>
<path fill="#D2EFFB" opacity="1.000000" stroke="none" 
	d="
M406.640808,334.994507 
	C406.337402,335.296265 405.687592,335.523041 404.688232,335.661194 
	C404.990601,335.354919 405.642487,335.137238 406.640808,334.994507 
z"/>
<path fill="#D2EFFB" opacity="1.000000" stroke="none" 
	d="
M412.443115,845.714233 
	C412.379547,846.082092 412.045990,846.528381 411.420166,847.019714 
	C411.476318,846.640747 411.824738,846.216675 412.443115,845.714233 
z"/>
<path fill="#D2EFFB" opacity="1.000000" stroke="none" 
	d="
M438.792786,632.270569 
	C438.775543,632.677979 438.475037,633.166504 437.888275,633.739197 
	C437.904541,633.332764 438.207062,632.842224 438.792786,632.270569 
z"/>
<path fill="#D2EFFB" opacity="1.000000" stroke="none" 
	d="
M403.798950,855.238159 
	C403.825989,855.617798 403.595581,856.133301 403.103821,856.781555 
	C403.075470,856.400940 403.308502,855.887451 403.798950,855.238159 
z"/>
<path fill="#D2EFFB" opacity="1.000000" stroke="none" 
	d="
M401.769226,858.216064 
	C401.804718,858.599304 401.580292,859.116882 401.101440,859.777832 
	C401.067810,859.397583 401.288574,858.873962 401.769226,858.216064 
z"/>
<path fill="#D2EFFB" opacity="1.000000" stroke="none" 
	d="
M410.791443,847.143799 
	C410.965118,847.437683 410.786957,847.687622 410.291168,847.949463 
	C410.226593,847.743896 410.381958,847.456726 410.791443,847.143799 
z"/>
<path fill="#D2EFFB" opacity="1.000000" stroke="none" 
	d="
M409.778198,848.110718 
	C409.953308,848.390869 409.776886,848.644348 409.284851,848.922363 
	C409.220764,848.728333 409.373260,848.440735 409.778198,848.110718 
z"/>
<path fill="#D2EFFB" opacity="1.000000" stroke="none" 
	d="
M405.595734,852.882812 
	C405.689148,853.097595 405.520599,853.396240 405.118561,853.814575 
	C405.034637,853.611755 405.184204,853.289185 405.595734,852.882812 
z"/>
<path fill="#D2EFFB" opacity="1.000000" stroke="none" 
	d="
M416.732971,842.052063 
	C416.784149,842.273010 416.568054,842.521362 416.112305,842.844299 
	C416.070343,842.639038 416.268005,842.359253 416.732971,842.052063 
z"/>
<path fill="#D2EFFB" opacity="1.000000" stroke="none" 
	d="
M419.655243,839.933044 
	C419.692810,840.158997 419.448608,840.430969 418.931641,840.763184 
	C418.897095,840.541931 419.135284,840.260498 419.655243,839.933044 
z"/>
<path fill="#D2EFFB" opacity="1.000000" stroke="none" 
	d="
M404.672363,853.978394 
	C404.891449,854.232239 404.748169,854.520020 404.291931,854.892822 
	C404.200806,854.711487 404.311188,854.389709 404.672363,853.978394 
z"/>
<path fill="#D2EFFB" opacity="1.000000" stroke="none" 
	d="
M402.643433,856.951782 
	C402.877869,857.206482 402.742889,857.500793 402.277191,857.874390 
	C402.179077,857.689514 402.288269,857.368835 402.643433,856.951782 
z"/>
<path fill="#D2EFFB" opacity="1.000000" stroke="none" 
	d="
M438.268768,416.978821 
	C438.150269,416.581757 438.400146,416.453735 438.871765,416.642456 
	C438.836395,416.845367 438.684296,416.941589 438.268768,416.978821 
z"/>
<path fill="#D2EFFB" opacity="1.000000" stroke="none" 
	d="
M439.773071,631.124023 
	C439.959076,631.381897 439.809875,631.635803 439.371887,631.941406 
	C439.091461,631.673828 439.209717,631.382812 439.773071,631.124023 
z"/>
<path fill="#D2EFFB" opacity="1.000000" stroke="none" 
	d="
M452.673340,617.962524 
	C452.741821,618.171082 452.551086,618.450989 452.121155,618.829895 
	C452.059357,618.630615 452.236755,618.332275 452.673340,617.962524 
z"/>
<path fill="#D2EFFB" opacity="1.000000" stroke="none" 
	d="
M451.663879,618.949158 
	C451.731842,619.162842 451.535004,619.440063 451.096985,619.813599 
	C451.036957,619.610840 451.218018,619.311768 451.663879,618.949158 
z"/>
<path fill="#D2EFFB" opacity="1.000000" stroke="none" 
	d="
M450.642761,619.924255 
	C450.712799,620.139771 450.517914,620.421814 450.077698,620.797241 
	C450.014160,620.590576 450.196014,620.290649 450.642761,619.924255 
z"/>
<path fill="#D2EFFB" opacity="1.000000" stroke="none" 
	d="
M449.625793,620.908203 
	C449.699890,621.121948 449.512115,621.408691 449.081665,621.795776 
	C449.013977,621.591187 449.188965,621.286133 449.625793,620.908203 
z"/>
<path fill="#D2EFFB" opacity="1.000000" stroke="none" 
	d="
M448.634644,621.926270 
	C448.716339,622.133972 448.540588,622.424316 448.134216,622.831787 
	C448.061462,622.635559 448.219360,622.322266 448.634644,621.926270 
z"/>
<path fill="#D2EFFB" opacity="1.000000" stroke="none" 
	d="
M446.690430,623.979492 
	C446.749207,624.184692 446.546478,624.455750 446.101990,624.819458 
	C446.049805,624.623230 446.239349,624.334351 446.690430,623.979492 
z"/>
<path fill="#D2EFFB" opacity="1.000000" stroke="none" 
	d="
M445.646729,624.936890 
	C445.728333,625.148682 445.547760,625.434448 445.132690,625.828613 
	C445.060303,625.628418 445.222412,625.319702 445.646729,624.936890 
z"/>
<path fill="#D2EFFB" opacity="1.000000" stroke="none" 
	d="
M444.673401,625.970337 
	C444.753876,626.181091 444.576813,626.464172 444.164673,626.847656 
	C444.091675,626.646301 444.253784,626.344421 444.673401,625.970337 
z"/>
<path fill="#D2EFFB" opacity="1.000000" stroke="none" 
	d="
M443.690887,626.997681 
	C443.887848,627.275269 443.721039,627.553040 443.224060,627.876770 
	C443.147430,627.679993 443.291840,627.371765 443.690887,626.997681 
z"/>
<path fill="#D2EFFB" opacity="1.000000" stroke="none" 
	d="
M442.731567,628.058289 
	C442.899658,628.332581 442.714355,628.595154 442.208984,628.888550 
	C442.147797,628.696106 442.310883,628.405151 442.731567,628.058289 
z"/>
<path fill="#D2EFFB" opacity="1.000000" stroke="none" 
	d="
M435.247803,788.840271 
	C435.267029,788.457764 435.537048,788.428833 435.910583,788.754395 
	C435.817505,788.914612 435.645691,788.942932 435.247803,788.840271 
z"/>
<path fill="#D2EFFB" opacity="1.000000" stroke="none" 
	d="
M436.585510,634.793823 
	C436.664917,635.008057 436.478088,635.324341 436.029602,635.748535 
	C435.951691,635.536255 436.135468,635.216064 436.585510,634.793823 
z"/>
<path fill="#D2EFFB" opacity="1.000000" stroke="none" 
	d="
M435.580048,635.871948 
	C435.680054,636.085327 435.522614,636.389526 435.132599,636.814941 
	C435.040863,636.611694 435.181732,636.287170 435.580048,635.871948 
z"/>
<path fill="#D2EFFB" opacity="1.000000" stroke="none" 
	d="
M434.679749,636.979248 
	C434.873077,637.248596 434.703674,637.527771 434.197449,637.847168 
	C434.125153,637.656128 434.277252,637.356689 434.679749,636.979248 
z"/>
<path fill="#D2EFFB" opacity="1.000000" stroke="none" 
	d="
M454.942688,617.074707 
	C454.759857,617.051819 454.576996,617.028992 454.126709,616.932251 
	C454.050018,616.580627 454.240753,616.302795 454.689087,615.964966 
	C454.980194,616.074707 455.013672,616.244507 455.029510,616.707275 
	C455.011902,617.000122 454.942688,617.074707 454.942688,617.074707 
z"/>
<path fill="#2A9583" opacity="1.000000" stroke="none" 
	d="
M942.813477,320.724304 
	C942.679077,320.724182 942.618469,320.555573 942.645935,320.474609 
	C942.673401,320.393677 943.029541,320.444763 943.029541,320.444763 
	C943.029541,320.444763 942.947937,320.724396 942.813477,320.724304 
z"/>
<path fill="#D2EFFB" opacity="1.000000" stroke="none" 
	d="
M453.619415,616.907837 
	C453.705139,617.118896 453.532501,617.413818 453.124573,617.822754 
	C453.046509,617.621765 453.203766,617.306702 453.619415,616.907837 
z"/>
<path fill="#0BA390" opacity="1.000000" stroke="none" 
	d="
M753.140320,684.187805 
	C753.230957,681.704712 753.464294,679.217346 753.390686,676.739075 
	C752.368164,642.279480 752.254150,607.840820 756.107239,573.517822 
	C756.485535,570.148376 757.462585,566.636902 759.028503,563.644836 
	C767.669006,547.135437 776.572266,530.763367 785.406128,514.355286 
	C786.253540,512.781250 787.242676,511.283508 789.048889,509.966339 
	C788.020752,517.535278 787.038879,525.110718 785.956787,532.671936 
	C780.021240,574.147949 774.081055,615.623291 768.097290,657.092346 
	C766.341431,669.261108 764.437866,681.408630 761.998657,693.696777 
	C758.577637,690.787537 755.760010,687.747314 752.998901,684.579895 
	C753.055420,684.452759 753.140320,684.187805 753.140320,684.187805 
z"/>
<path fill="#09A490" opacity="1.000000" stroke="none" 
	d="
M834.793945,1162.475830 
	C838.947571,1164.555908 839.646606,1161.751709 840.574707,1159.155151 
	C848.696655,1136.431519 856.839417,1113.715454 864.984863,1091.000244 
	C865.260193,1090.232300 865.629761,1089.498291 866.511353,1087.468262 
	C868.108337,1098.897095 869.549377,1109.076538 870.949219,1119.261841 
	C872.715820,1132.116333 874.336548,1144.992554 876.319641,1157.813110 
	C876.609924,1159.690063 878.555969,1161.310791 879.735901,1163.050049 
	C880.364319,1162.956421 880.992737,1162.862915 881.621155,1162.769409 
	C878.122375,1173.457764 874.555603,1184.124634 871.161926,1194.846191 
	C869.983154,1198.570068 869.233154,1202.429565 868.204041,1206.562012 
	C854.901733,1208.973267 825.884460,1176.354126 828.504150,1160.057251 
	C830.561157,1160.837646 832.495361,1161.571411 834.793945,1162.475830 
z"/>
<path fill="#F5B687" opacity="1.000000" stroke="none" 
	d="
M937.023071,315.798889 
	C936.487549,315.631775 935.951904,315.464691 935.086060,314.911774 
	C934.552612,314.302063 934.311035,314.133087 934.031067,314.019012 
	C934.031067,314.019012 933.981445,314.020325 933.851746,313.794861 
	C933.509766,313.320160 933.248901,313.142059 932.939392,313.035095 
	C932.939392,313.035095 932.462280,312.975281 932.027527,312.732605 
	C931.067932,312.323792 930.543152,312.157715 930.018311,311.991638 
	C914.570251,303.614197 898.820801,305.086273 883.116699,310.940857 
	C881.346130,311.600983 880.412720,314.506439 879.130981,316.755188 
	C879.170898,317.139679 879.140320,317.051849 878.946533,317.171326 
	C878.553650,317.586487 878.354614,317.882202 878.155640,318.177917 
	C874.215210,322.818573 870.344788,327.521729 866.289185,332.059448 
	C865.161804,333.320831 863.485962,334.091980 861.734741,335.015350 
	C859.684143,325.563843 857.960388,316.185089 856.309082,306.293640 
	C856.440979,305.406830 856.278381,305.168274 855.893677,305.065308 
	C855.893677,305.065308 855.924133,305.000153 855.946777,304.636902 
	C854.640259,301.472046 853.311096,298.670502 851.981934,295.868927 
	C851.981934,295.868927 851.816833,295.638123 852.029297,295.087097 
	C852.507751,289.416626 853.040466,284.291138 852.924927,279.180359 
	C852.868835,276.700775 851.598389,274.248657 850.877686,271.784088 
	C850.812439,271.430084 850.747192,271.076111 851.103271,270.226562 
	C852.060669,267.891296 852.480957,266.005432 853.186890,264.233337 
	C853.490479,263.471191 854.386353,262.944946 855.013184,262.311584 
	C855.633484,262.957977 856.560730,263.508453 856.799866,264.273956 
	C857.132263,265.337799 856.998535,266.563782 856.976257,267.718689 
	C856.919678,270.653320 856.869141,273.764557 860.909058,273.781372 
	C864.689026,273.797058 865.808350,271.140930 866.017029,267.777435 
	C866.251343,263.999664 866.183533,260.095917 867.171204,256.500824 
	C868.264587,252.520981 868.626953,247.144974 875.101624,247.907379 
	C875.059387,247.908340 875.112854,247.842911 875.100281,248.241425 
	C875.142578,249.129486 875.126526,249.639786 875.262878,250.105453 
	C877.566467,257.972870 882.495300,265.158508 881.266602,273.985687 
	C881.148987,274.830780 883.084961,275.961761 884.032593,276.963898 
	C883.997559,276.967773 884.053162,276.924408 884.096680,277.280396 
	C885.789673,281.802795 888.782776,283.910889 893.227417,283.732025 
	C893.123535,283.827667 893.296997,283.604797 893.377930,283.947510 
	C899.395203,285.980347 905.331421,287.670471 911.369141,289.359711 
	C911.470581,289.358856 911.526672,289.553802 911.583740,289.774933 
	C911.830017,290.278687 912.093689,290.400757 912.519165,290.380066 
	C912.606506,290.397858 912.630127,290.574463 912.530762,290.946106 
	C913.688538,292.486450 914.945618,293.655182 916.162476,294.840027 
	C916.122192,294.856140 916.138123,294.770935 916.299683,295.125244 
	C919.394287,295.889587 922.329956,296.282410 925.259827,296.714264 
	C928.471680,297.187744 931.680176,297.685089 934.885986,298.197693 
	C935.989258,298.374084 937.080139,298.627777 938.110474,298.895233 
	C938.044312,298.944305 938.148804,298.816925 938.176575,299.239990 
	C937.810608,305.041687 937.416870,310.420288 937.023071,315.798889 
z"/>
<path fill="#F5B687" opacity="1.000000" stroke="none" 
	d="
M1090.905762,689.207275 
	C1093.447998,690.898621 1095.825195,692.897522 1098.505127,695.031555 
	C1101.224976,698.514160 1103.918457,701.698669 1106.004150,705.241089 
	C1111.230713,714.117432 1110.221313,723.062622 1103.004639,731.575562 
	C1098.240234,734.097412 1093.914062,736.093445 1089.169800,738.032837 
	C1082.507935,737.230530 1076.264282,736.484924 1070.061401,735.381836 
	C1071.254883,732.185608 1072.407471,729.346802 1073.688232,726.192871 
	C1069.678711,725.452942 1065.724365,723.741211 1061.955811,726.966309 
	C1061.527588,719.865540 1061.099487,712.764832 1060.823975,705.193298 
	C1073.229736,704.216797 1082.719116,698.302185 1090.905762,689.207275 
z"/>
<path fill="#E3C096" opacity="1.000000" stroke="none" 
	d="
M752.942383,684.707031 
	C755.760010,687.747314 758.577637,690.787537 761.713257,693.961670 
	C761.594360,699.163818 761.571716,704.313171 760.599426,709.276611 
	C759.699829,713.869324 759.917297,717.262329 764.922729,719.039124 
	C766.083496,719.451050 766.971191,720.632019 768.218750,721.747314 
	C768.044250,727.826477 767.846619,733.644958 767.093384,739.390747 
	C766.877747,741.035706 765.054321,742.469971 763.968140,744.000916 
	C762.514587,742.833984 760.199402,741.925354 759.758606,740.454773 
	C757.967773,734.480713 756.409668,728.387146 755.457458,722.230652 
	C754.915649,718.727295 753.433533,717.360962 750.188538,716.873169 
	C746.418823,716.306519 744.717590,717.778381 745.216736,721.465820 
	C745.727600,725.240295 746.465576,728.989746 747.268921,732.714539 
	C747.451538,733.561096 748.366699,734.956482 748.852661,734.918640 
	C752.648010,734.622620 754.963257,736.614807 754.697571,739.973145 
	C754.530762,742.082214 752.190247,744.019287 750.117676,747.076965 
	C750.936584,748.450806 752.638367,750.827759 753.799927,753.444458 
	C754.438293,754.882324 754.166870,756.723938 754.305603,758.383545 
	C752.497314,758.185120 750.426086,758.467407 748.950684,757.660400 
	C747.299377,756.757202 745.647949,755.087097 744.946167,753.363953 
	C743.095093,748.818604 739.630432,747.269653 735.177979,746.094055 
	C716.013611,741.034302 706.822510,724.942688 711.640015,705.241333 
	C712.741272,700.737488 714.323364,696.351074 716.254822,691.520020 
	C728.864441,688.988647 740.903381,686.847839 752.942383,684.707031 
M743.340088,745.943848 
	C749.628052,747.463745 747.922241,740.483276 751.460510,739.079224 
	C745.021240,737.870422 740.873901,731.650452 741.440247,723.712158 
	C741.610962,721.319275 742.021240,718.524292 743.385803,716.716614 
	C747.075806,711.827942 752.820923,715.347656 757.553772,714.151428 
	C757.968384,710.732117 758.160950,707.419678 758.808777,704.198914 
	C759.833923,699.101868 757.152527,691.221924 752.802917,688.443909 
	C751.421875,687.561951 749.314087,687.051636 747.738403,687.367310 
	C738.642090,689.189636 729.590027,691.245361 720.566528,693.404236 
	C719.296448,693.708130 717.401428,694.885620 717.259216,695.870117 
	C716.048706,704.247070 711.149597,712.013672 713.864563,721.096252 
	C715.764587,727.452515 718.021851,733.479553 723.285645,737.557556 
	C725.429138,739.218262 728.826111,739.261230 731.652771,740.040222 
	C733.364502,741.818848 735.386841,743.027283 737.522278,743.982910 
	C739.152954,744.712708 740.926819,745.122620 743.340088,745.943848 
M729.463623,741.492004 
	C729.463623,741.492004 729.516846,741.469421 729.463623,741.492004 
z"/>
<path fill="#9DADC4" opacity="1.000000" stroke="none" 
	d="
M752.998901,684.579895 
	C740.903381,686.847839 728.864441,688.988647 716.404846,691.190674 
	C715.405334,688.812134 714.826355,686.372314 714.202209,683.572266 
	C726.855652,683.483215 739.554199,683.754333 752.696533,684.106689 
	C753.140320,684.187805 753.055420,684.452759 752.998901,684.579895 
z"/>
<path fill="#9DADC4" opacity="1.000000" stroke="none" 
	d="
M878.417603,318.074249 
	C878.354614,317.882202 878.553650,317.586487 878.990784,317.156982 
	C879.045776,317.338959 878.862671,317.654755 878.417603,318.074249 
z"/>
<path fill="#000101" opacity="1.000000" stroke="none" 
	d="
M1061.768311,727.341797 
	C1065.724365,723.741211 1069.678711,725.452942 1073.688232,726.192871 
	C1072.407471,729.346802 1071.254883,732.185608 1069.870605,735.696716 
	C1066.844727,742.100098 1063.916016,747.799561 1064.997925,755.030945 
	C1074.410278,752.926392 1083.367920,750.923523 1092.988892,748.772278 
	C1091.755615,744.898254 1090.671753,741.493896 1089.588013,738.089478 
	C1093.914062,736.093445 1098.240234,734.097412 1102.846680,731.849487 
	C1104.151855,736.087646 1105.176514,740.577576 1106.362549,745.775024 
	C1120.856934,742.641235 1135.374756,739.502319 1150.438477,736.245422 
	C1151.976074,745.738403 1153.449585,754.552307 1154.825684,763.381470 
	C1161.362183,805.315857 1167.910645,847.248413 1174.365112,889.195435 
	C1176.021362,899.960083 1176.981445,898.291931 1166.810059,901.286743 
	C1128.176270,912.661682 1089.566284,924.120056 1050.855713,935.227539 
	C1045.890259,936.652344 1040.384644,936.540283 1035.130981,936.525635 
	C1028.813599,936.507996 1022.499817,935.573425 1016.181458,935.534302 
	C1012.080139,935.508911 1010.728333,933.796143 1010.446167,929.966980 
	C1009.418091,916.014221 1008.214294,902.073914 1007.011047,888.134644 
	C1004.476929,858.779663 1001.898315,829.428589 999.344666,800.075317 
	C998.652283,792.117126 998.101746,784.144287 997.256897,776.202576 
	C996.790466,771.818542 998.074402,769.732056 1002.773926,768.822876 
	C1015.681641,766.325623 1028.482666,763.268738 1041.295898,760.303345 
	C1042.742920,759.968445 1044.597412,759.137329 1045.247437,757.970459 
	C1050.824463,747.960022 1056.167725,737.819214 1061.768311,727.341797 
z"/>
<path fill="#020202" opacity="1.000000" stroke="none" 
	d="
M851.914856,261.216309 
	C852.327454,255.033371 851.948608,248.670303 853.306702,242.702499 
	C856.837585,227.186829 862.818604,212.847519 876.829529,203.516708 
	C885.882080,197.487991 896.033142,193.645096 906.714844,193.494919 
	C912.807922,193.409241 919.249084,196.293060 925.007263,198.971252 
	C935.181946,203.703568 943.922424,210.594360 951.469421,219.016464 
	C962.223145,231.017151 965.482300,245.001038 960.152649,259.822205 
	C955.006470,274.133423 947.890930,287.736542 941.110718,301.606995 
	C939.770203,300.647827 938.959473,299.732391 938.148804,298.816925 
	C938.148804,298.816925 938.044312,298.944305 937.977905,298.571899 
	C934.941406,294.937042 931.512085,293.829590 926.988464,294.684357 
	C923.491089,295.345276 919.763428,294.787140 916.138123,294.770935 
	C916.138123,294.770935 916.122192,294.856140 916.018311,294.560242 
	C914.819641,293.034363 913.724915,291.804413 912.630127,290.574463 
	C912.630127,290.574463 912.606506,290.397858 912.420654,290.193420 
	C912.051575,289.757996 911.815552,289.612915 911.526672,289.553802 
	C911.526672,289.553802 911.470581,289.358856 911.094238,289.159058 
	C909.377136,288.213867 908.117554,287.166962 906.680298,286.779205 
	C902.255737,285.585724 897.763123,284.644196 893.296997,283.604797 
	C893.296997,283.604797 893.123535,283.827667 893.023071,283.462158 
	C889.966125,281.039215 887.009644,278.981812 884.053162,276.924408 
	C884.053162,276.924408 883.997559,276.967773 883.998291,276.537781 
	C883.671875,273.817596 883.420410,271.513550 883.003418,269.239807 
	C881.612732,261.655487 881.080750,253.742905 875.112854,247.842911 
	C875.112854,247.842911 875.059387,247.908340 875.012878,247.576172 
	C871.609497,244.042419 868.819641,244.671234 867.699707,249.023849 
	C866.364929,254.211227 865.712585,259.577118 864.829468,264.876465 
	C864.432617,267.257538 864.193237,269.664825 863.907043,271.870667 
	C861.882690,271.870667 860.459045,271.870667 858.963196,271.870667 
	C858.382935,266.360870 860.238464,260.121948 853.394836,256.909058 
	C852.863953,258.454071 852.389343,259.835205 851.914856,261.216309 
z"/>
<path fill="#E3C096" opacity="1.000000" stroke="none" 
	d="
M851.890564,261.602295 
	C852.389343,259.835205 852.863953,258.454071 853.394836,256.909058 
	C860.238464,260.121948 858.382935,266.360870 858.963196,271.870667 
	C860.459045,271.870667 861.882690,271.870667 863.907043,271.870667 
	C864.193237,269.664825 864.432617,267.257538 864.829468,264.876465 
	C865.712585,259.577118 866.364929,254.211227 867.699707,249.023849 
	C868.819641,244.671234 871.609497,244.042419 875.055115,247.575195 
	C868.626953,247.144974 868.264587,252.520981 867.171204,256.500824 
	C866.183533,260.095917 866.251343,263.999664 866.017029,267.777435 
	C865.808350,271.140930 864.689026,273.797058 860.909058,273.781372 
	C856.869141,273.764557 856.919678,270.653320 856.976257,267.718689 
	C856.998535,266.563782 857.132263,265.337799 856.799866,264.273956 
	C856.560730,263.508453 855.633484,262.957977 855.013184,262.311584 
	C854.386353,262.944946 853.490479,263.471191 853.186890,264.233337 
	C852.480957,266.005432 852.060669,267.891296 851.207581,269.972321 
	C851.215881,267.471832 851.541077,264.730042 851.890564,261.602295 
z"/>
<path fill="#09A490" opacity="1.000000" stroke="none" 
	d="
M753.948120,724.471924 
	C753.985535,725.571777 754.130798,726.268188 753.984680,726.896790 
	C753.531433,728.845947 752.967468,730.769348 752.446533,732.702759 
	C751.109924,731.086426 749.695557,729.525757 748.477234,727.824646 
	C748.028137,727.197632 748.003479,726.246582 747.850952,725.431030 
	C747.417542,723.113708 745.704346,719.971619 749.452209,719.456604 
	C750.708740,719.283936 752.419495,722.416016 753.948120,724.471924 
z"/>
<path fill="#E3C096" opacity="1.000000" stroke="none" 
	d="
M850.754272,272.223206 
	C851.598389,274.248657 852.868835,276.700775 852.924927,279.180359 
	C853.040466,284.291138 852.507751,289.416626 852.064514,294.949646 
	C851.614258,292.162964 851.256653,288.967102 851.088745,285.761322 
	C850.860291,281.398987 850.776611,277.029022 850.754272,272.223206 
z"/>
<path fill="#E3C096" opacity="1.000000" stroke="none" 
	d="
M938.176575,299.239990 
	C938.959473,299.732391 939.770203,300.647827 940.811035,301.780640 
	C940.674500,306.637054 940.307861,311.276154 939.913696,316.320892 
	C939.066345,316.585541 938.246460,316.444489 937.224854,316.051147 
	C937.416870,310.420288 937.810608,305.041687 938.176575,299.239990 
z"/>
<path fill="#E3C096" opacity="1.000000" stroke="none" 
	d="
M851.934265,296.258698 
	C853.311096,298.670502 854.640259,301.472046 855.941528,304.669708 
	C854.571289,302.260010 853.228943,299.454224 851.934265,296.258698 
z"/>
<path fill="#E3C096" opacity="1.000000" stroke="none" 
	d="
M855.897217,305.330719 
	C856.278381,305.168274 856.440979,305.406830 856.281128,305.914032 
	C856.087463,305.896790 855.994080,305.746460 855.897217,305.330719 
z"/>
<path fill="#D2EFFB" opacity="1.000000" stroke="none" 
	d="
M455.049683,616.966064 
	C455.087463,616.932007 455.345978,617.202148 455.345978,617.202148 
	C455.345978,617.202148 455.064362,617.228394 455.003540,617.151550 
	C454.942688,617.074707 455.011902,617.000122 455.049683,616.966064 
z"/>
<path fill="#E3C096" opacity="1.000000" stroke="none" 
	d="
M930.202148,312.211060 
	C930.543152,312.157715 931.067932,312.323792 931.792358,312.682495 
	C931.456604,312.726898 930.921265,312.578705 930.202148,312.211060 
z"/>
<path fill="#E3C096" opacity="1.000000" stroke="none" 
	d="
M934.140503,314.219330 
	C934.311035,314.133087 934.552612,314.302063 934.888977,314.703247 
	C934.712036,314.815155 934.454590,314.661530 934.140503,314.219330 
z"/>
<path fill="#E3C096" opacity="1.000000" stroke="none" 
	d="
M933.063843,313.241028 
	C933.248901,313.142059 933.509766,313.320160 933.850647,313.770081 
	C933.659668,313.880646 933.395996,313.706024 933.063843,313.241028 
z"/>
<path fill="#E3C096" opacity="1.000000" stroke="none" 
	d="
M875.100281,248.241425 
	C881.080750,253.742905 881.612732,261.655487 883.003418,269.239807 
	C883.420410,271.513550 883.671875,273.817596 884.033325,276.533905 
	C883.084961,275.961761 881.148987,274.830780 881.266602,273.985687 
	C882.495300,265.158508 877.566467,257.972870 875.262878,250.105453 
	C875.126526,249.639786 875.142578,249.129486 875.100281,248.241425 
z"/>
<path fill="#E3C096" opacity="1.000000" stroke="none" 
	d="
M916.299683,295.125244 
	C919.763428,294.787140 923.491089,295.345276 926.988464,294.684357 
	C931.512085,293.829590 934.941406,294.937042 938.044067,298.522827 
	C937.080139,298.627777 935.989258,298.374084 934.885986,298.197693 
	C931.680176,297.685089 928.471680,297.187744 925.259827,296.714264 
	C922.329956,296.282410 919.394287,295.889587 916.299683,295.125244 
z"/>
<path fill="#E3C096" opacity="1.000000" stroke="none" 
	d="
M893.377930,283.947510 
	C897.763123,284.644196 902.255737,285.585724 906.680298,286.779205 
	C908.117554,287.166962 909.377136,288.213867 910.992798,289.159912 
	C905.331421,287.670471 899.395203,285.980347 893.377930,283.947510 
z"/>
<path fill="#E3C096" opacity="1.000000" stroke="none" 
	d="
M884.096680,277.280396 
	C887.009644,278.981812 889.966125,281.039215 893.126953,283.366516 
	C888.782776,283.910889 885.789673,281.802795 884.096680,277.280396 
z"/>
<path fill="#E3C096" opacity="1.000000" stroke="none" 
	d="
M912.530762,290.946106 
	C913.724915,291.804413 914.819641,293.034363 916.058533,294.544128 
	C914.945618,293.655182 913.688538,292.486450 912.530762,290.946106 
z"/>
<path fill="#E3C096" opacity="1.000000" stroke="none" 
	d="
M911.583740,289.774933 
	C911.815552,289.612915 912.051575,289.757996 912.333374,290.175629 
	C912.093689,290.400757 911.830017,290.278687 911.583740,289.774933 
z"/>
<path fill="#0BA390" opacity="1.000000" stroke="none" 
	d="
M1089.169800,738.032837 
	C1090.671753,741.493896 1091.755615,744.898254 1092.988892,748.772278 
	C1083.367920,750.923523 1074.410278,752.926392 1064.997925,755.030945 
	C1063.916016,747.799561 1066.844727,742.100098 1069.829834,736.054199 
	C1076.264282,736.484924 1082.507935,737.230530 1089.169800,738.032837 
z"/>
<path fill="#FBB582" opacity="1.000000" stroke="none" 
	d="
M742.988525,745.809326 
	C740.926819,745.122620 739.152954,744.712708 737.522278,743.982910 
	C735.386841,743.027283 733.364502,741.818848 731.652771,740.040222 
	C728.826111,739.261230 725.429138,739.218262 723.285645,737.557556 
	C718.021851,733.479553 715.764587,727.452515 713.864563,721.096252 
	C711.149597,712.013672 716.048706,704.247070 717.259216,695.870117 
	C717.401428,694.885620 719.296448,693.708130 720.566528,693.404236 
	C729.590027,691.245361 738.642090,689.189636 747.738403,687.367310 
	C749.314087,687.051636 751.421875,687.561951 752.802917,688.443909 
	C757.152527,691.221924 759.833923,699.101868 758.808777,704.198914 
	C758.160950,707.419678 757.968384,710.732117 757.553772,714.151428 
	C752.820923,715.347656 747.075806,711.827942 743.385803,716.716614 
	C742.021240,718.524292 741.610962,721.319275 741.440247,723.712158 
	C740.873901,731.650452 745.021240,737.870422 751.460510,739.079224 
	C747.922241,740.483276 749.628052,747.463745 742.988525,745.809326 
z"/>
<path fill="#FBB582" opacity="1.000000" stroke="none" 
	d="
M729.490234,741.480713 
	C729.516846,741.469421 729.463623,741.492004 729.490234,741.480713 
z"/>
</svg>